<svg xmlns="http://www.w3.org/2000/svg" width="181.014" height="153.269" viewBox="0 0 181.014 153.269">
  <g id="Grupo_1066052" data-name="Grupo 1066052" transform="translate(-218.127 -6813.365)">
    <g id="Grupo_1066051" data-name="Grupo 1066051" transform="translate(-136.819 5292.665)">
      <path id="Trazado_799749" data-name="Trazado 799749" d="M123.723,35.8c.018-.071.035-.143.053-.214a38.977,38.977,0,0,0,.8-17.139C121.669,4.359,107.112-4.732,93.828,2.6,78.595,11.007,68.58,26.462,48.981,23.686,34.025,21.568,22.689,9.695,8.258,21.906-7.175,34.965,1.464,55.223,14.266,66.483,28.42,78.932,48.741,86.571,67.588,84.157c21.472-2.75,41.961-17.28,51.718-36.568A56.41,56.41,0,0,0,123.723,35.8" transform="translate(420.694 1523.431) rotate(51)" fill="#0097f1"/>
      <path id="Trazado_799750" data-name="Trazado 799750" d="M144.446,41.793c.021-.083.041-.167.062-.25,1.6-6.541,2.3-13.358.93-20.009-3.39-16.446-20.385-27.059-35.894-18.5C91.759,12.85,80.067,30.893,57.186,27.652c-17.462-2.473-30.7-16.335-47.545-2.078-18.017,15.246-7.932,38.9,7.014,52.043C33.181,92.152,56.9,101.071,78.909,98.253,103.977,95.042,127.9,78.079,139.29,55.56a65.858,65.858,0,0,0,5.157-13.766" transform="translate(366.522 1560.125)" fill="#ffc202"/>
    </g>
    <g id="Grupo_1066050" data-name="Grupo 1066050" transform="translate(273 6813.366)">
      <path id="Trazado_801814" data-name="Trazado 801814" d="M113.43,128.086V130.6l-37.9-31.53V96.555Z" transform="translate(2.856 3.651)" fill="#353e47"/>
      <path id="Trazado_801815" data-name="Trazado 801815" d="M0,112.82v2.516L78.386,99.071V96.555Z" transform="translate(0 3.651)" fill="#4e5c6a"/>
      <path id="Trazado_801816" data-name="Trazado 801816" d="M0,114.742l37.9,31.53v-2.515L0,112.227Z" transform="translate(0 4.244)" fill="#1b92bc"/>
      <path id="Trazado_801817" data-name="Trazado 801817" d="M36.519,143.2v2.516l78.386-16.265v-2.515Z" transform="translate(1.381 4.8)" fill="#53b8e5"/>
      <path id="Trazado_801818" data-name="Trazado 801818" d="M0,112.82l37.9,31.53,78.386-16.263-37.9-31.532Z" transform="translate(0 3.651)" fill="#b3e8ff"/>
      <path id="Trazado_801819" data-name="Trazado 801819" d="M61.638,108.688l12.237,9.943-24.15,5-12.237-9.944Z" transform="translate(1.418 4.11)" fill="#757575"/>
      <path id="Trazado_801820" data-name="Trazado 801820" d="M73.429,118.269v1.142l-24.15,5v-1.142Z" transform="translate(1.863 4.472)" fill="#515151"/>
      <path id="Trazado_801821" data-name="Trazado 801821" d="M49.725,123.447v1.142l-12.237-9.943V113.5Z" transform="translate(1.418 4.292)" fill="#353535"/>
      <path id="Trazado_801822" data-name="Trazado 801822" d="M61.954,89.683l.524.439L38.031,95.1l-.524-.438Z" transform="translate(1.418 3.391)" fill="#5b5b5b"/>
      <path id="Trazado_801823" data-name="Trazado 801823" d="M62.46,90.106l-.02,20.047-24.447,4.974.02-20.047Z" transform="translate(1.437 3.407)" fill="#757575"/>
      <path id="Trazado_801824" data-name="Trazado 801824" d="M37.488,114.523l.525.439.02-20.048-.525-.438Z" transform="translate(1.418 3.572)" fill="#353535"/>
      <path id="Trazado_801825" data-name="Trazado 801825" d="M95.441,17.88l2.022,1.692L3.216,38.746,1.2,37.054Z" transform="translate(0.045 0.676)" fill="#5b5b5b"/>
      <path id="Trazado_801826" data-name="Trazado 801826" d="M97.392,19.509,97.315,96.8,3.069,115.972l.077-77.288Z" transform="translate(0.116 0.738)" fill="#fff"/>
      <path id="Trazado_801827" data-name="Trazado 801827" d="M3.219,38.047l-.077,77.287-2.021-1.691L1.2,36.355Z" transform="translate(0.042 1.375)" fill="#353535"/>
      <path id="Trazado_801828" data-name="Trazado 801828" d="M93.4,23.3l-.07,70.982L6.777,111.894l.071-70.982Z" transform="translate(0.256 0.881)" fill="#ff6131"/>
      <path id="Trazado_801829" data-name="Trazado 801829" d="M35.648,45.764l-.02,20.381L10.774,71.2l.02-20.382Z" transform="translate(0.407 1.73)" fill="#fffeff"/>
      <path id="Trazado_801830" data-name="Trazado 801830" d="M61.547,40.573l-.02,20.382L36.674,66.011l.02-20.382Z" transform="translate(1.387 1.534)" fill="#fffeff"/>
      <path id="Trazado_801831" data-name="Trazado 801831" d="M87.447,35.382l-.02,20.382L62.573,60.82l.02-20.382Z" transform="translate(2.366 1.338)" fill="#fffeff"/>
      <path id="Trazado_801832" data-name="Trazado 801832" d="M87.4,58.02l-.019,19.232L63.925,82.022l.019-19.232Z" transform="translate(2.417 2.194)" fill="#ffde76"/>
      <path id="Trazado_801833" data-name="Trazado 801833" d="M27.145,70.564l-.013,2.747L10.775,76.639l.012-2.747Z" transform="translate(0.407 2.668)" fill="#ffde76"/>
      <path id="Trazado_801834" data-name="Trazado 801834" d="M44.191,67.147l-.013,2.747L27.821,73.222l.013-2.747Z" transform="translate(1.052 2.539)" fill="#ffde76"/>
      <path id="Trazado_801835" data-name="Trazado 801835" d="M61.237,63.73l-.013,2.747L44.867,69.806l.013-2.747Z" transform="translate(1.697 2.41)" fill="#ffde76"/>
      <path id="Trazado_801836" data-name="Trazado 801836" d="M27.145,75.5l-.013,2.747L10.775,81.573l.012-2.747Z" transform="translate(0.407 2.855)" fill="#ffde76"/>
      <path id="Trazado_801837" data-name="Trazado 801837" d="M44.191,72.081l-.013,2.747L27.821,78.156l.013-2.747Z" transform="translate(1.052 2.726)" fill="#ffde76"/>
      <path id="Trazado_801838" data-name="Trazado 801838" d="M61.237,68.664l-.013,2.747L44.867,74.74l.013-2.747Z" transform="translate(1.697 2.596)" fill="#ffde76"/>
      <path id="Trazado_801839" data-name="Trazado 801839" d="M27.145,80.432l-.013,2.747L10.775,86.507l.012-2.747Z" transform="translate(0.407 3.041)" fill="#ffde76"/>
      <path id="Trazado_801840" data-name="Trazado 801840" d="M44.191,77.015l-.013,2.747L27.821,83.09l.013-2.747Z" transform="translate(1.052 2.912)" fill="#ffde76"/>
      <path id="Trazado_801841" data-name="Trazado 801841" d="M61.237,73.6l-.013,2.747L44.867,79.673l.013-2.747Z" transform="translate(1.697 2.783)" fill="#ffde76"/>
      <path id="Trazado_801842" data-name="Trazado 801842" d="M27.145,85.365l-.013,2.747L10.775,91.441l.012-2.747Z" transform="translate(0.407 3.228)" fill="#ffde76"/>
      <path id="Trazado_801843" data-name="Trazado 801843" d="M44.191,81.949,44.178,84.7,27.821,88.024l.013-2.747Z" transform="translate(1.052 3.099)" fill="#ffde76"/>
      <path id="Trazado_801844" data-name="Trazado 801844" d="M61.237,78.532l-.013,2.747L44.867,84.607l.013-2.747Z" transform="translate(1.697 2.97)" fill="#ffde76"/>
      <path id="Trazado_801845" data-name="Trazado 801845" d="M123.55,0,68.557,11.188l-.045,45.1L123.506,45.1Z" transform="translate(2.591)" fill="#2b1e63"/>
      <path id="Trazado_801846" data-name="Trazado 801846" d="M117.856,5.739l-.01,10.241-12.488,2.541.01-10.241Z" transform="translate(3.984 0.217)" fill="#5e558e"/>
      <path id="Trazado_801847" data-name="Trazado 801847" d="M118.947,29.246l-.01,10.241L72.665,49.1l.01-10.242Z" transform="translate(2.748 1.106)" fill="#ffde76"/>
      <path id="Trazado_801848" data-name="Trazado 801848" d="M103.309,8.983l-.012.63L72.664,15.846l.012-.631Z" transform="translate(2.748 0.34)" fill="#5e558e"/>
      <path id="Trazado_801849" data-name="Trazado 801849" d="M103.309,10.8l-.012.63L72.664,17.66l.012-.63Z" transform="translate(2.748 0.408)" fill="#5e558e"/>
      <path id="Trazado_801850" data-name="Trazado 801850" d="M103.309,12.612l-.012.63L72.664,19.475l.012-.631Z" transform="translate(2.748 0.477)" fill="#5e558e"/>
      <path id="Trazado_801851" data-name="Trazado 801851" d="M103.309,14.426l-.012.63L72.664,21.289l.012-.631Z" transform="translate(2.748 0.546)" fill="#5e558e"/>
      <path id="Trazado_801852" data-name="Trazado 801852" d="M103.309,16.241l-.012.63L72.664,23.1l.012-.63Z" transform="translate(2.748 0.614)" fill="#5e558e"/>
      <path id="Trazado_801853" data-name="Trazado 801853" d="M103.309,18.055l-.012.63L72.664,24.918l.012-.631Z" transform="translate(2.748 0.683)" fill="#5e558e"/>
      <path id="Trazado_801854" data-name="Trazado 801854" d="M103.309,19.87l-.012.63L72.664,26.733l.012-.631Z" transform="translate(2.748 0.751)" fill="#5e558e"/>
      <path id="Trazado_801855" data-name="Trazado 801855" d="M103.309,21.684l-.012.63L72.664,28.547l.012-.631Z" transform="translate(2.748 0.82)" fill="#5e558e"/>
      <path id="Trazado_801856" data-name="Trazado 801856" d="M103.309,23.5l-.012.63L72.664,30.362l.012-.631Z" transform="translate(2.748 0.889)" fill="#5e558e"/>
      <path id="Trazado_801857" data-name="Trazado 801857" d="M103.309,25.313l-.012.63L72.664,32.176l.012-.631Z" transform="translate(2.748 0.957)" fill="#5e558e"/>
      <path id="Trazado_801858" data-name="Trazado 801858" d="M103.309,27.127l-.012.63L72.664,33.99l.012-.631Z" transform="translate(2.748 1.026)" fill="#5e558e"/>
      <path id="Trazado_801859" data-name="Trazado 801859" d="M103.309,28.942l-.012.63L72.664,35.8l.012-.631Z" transform="translate(2.748 1.094)" fill="#5e558e"/>
      <path id="Trazado_801860" data-name="Trazado 801860" d="M117.706,17.5l-.005.254-12.344,2.512.005-.254Z" transform="translate(3.984 0.662)" fill="#5e558e"/>
      <path id="Trazado_801861" data-name="Trazado 801861" d="M117.706,18.231l-.005.254L105.357,21l.005-.254Z" transform="translate(3.984 0.689)" fill="#5e558e"/>
      <path id="Trazado_801862" data-name="Trazado 801862" d="M117.706,18.962l-.005.254-12.344,2.512.005-.254Z" transform="translate(3.984 0.717)" fill="#5e558e"/>
      <path id="Trazado_801863" data-name="Trazado 801863" d="M117.706,19.693l-.005.254-12.344,2.512.005-.254Z" transform="translate(3.984 0.745)" fill="#5e558e"/>
      <path id="Trazado_801864" data-name="Trazado 801864" d="M117.706,20.424l-.005.254L105.357,23.19l.005-.254Z" transform="translate(3.984 0.772)" fill="#5e558e"/>
      <path id="Trazado_801865" data-name="Trazado 801865" d="M117.706,21.155l-.005.254-12.344,2.512.005-.254Z" transform="translate(3.984 0.8)" fill="#5e558e"/>
      <path id="Trazado_801866" data-name="Trazado 801866" d="M117.706,21.887l-.005.254-12.344,2.512.005-.254Z" transform="translate(3.984 0.828)" fill="#5e558e"/>
      <path id="Trazado_801867" data-name="Trazado 801867" d="M117.706,22.618l-.005.254-12.344,2.512.005-.254Z" transform="translate(3.984 0.855)" fill="#5e558e"/>
      <path id="Trazado_801868" data-name="Trazado 801868" d="M117.706,23.349l-.005.254-12.344,2.512.005-.254Z" transform="translate(3.984 0.883)" fill="#5e558e"/>
      <path id="Trazado_801869" data-name="Trazado 801869" d="M117.706,24.08l-.005.254-12.344,2.512.005-.254Z" transform="translate(3.984 0.911)" fill="#5e558e"/>
      <path id="Trazado_801870" data-name="Trazado 801870" d="M117.706,24.811l-.005.254-12.344,2.512.005-.254Z" transform="translate(3.984 0.938)" fill="#5e558e"/>
      <path id="Trazado_801871" data-name="Trazado 801871" d="M117.706,25.542l-.005.254-12.344,2.512.005-.254Z" transform="translate(3.984 0.966)" fill="#5e558e"/>
    </g>
  </g>
</svg>
