<svg xmlns="http://www.w3.org/2000/svg" xmlns:xlink="http://www.w3.org/1999/xlink" width="1320" height="506" viewBox="0 0 1320 506">
  <defs>
    <radialGradient id="radial-gradient" cx="0.708" cy="0.5" r="0.217" gradientTransform="translate(0 -0.696) scale(1 2.391)" gradientUnits="objectBoundingBox">
      <stop offset="0" stop-color="#00dafd"/>
      <stop offset="1" stop-color="#0097f1"/>
    </radialGradient>
    <clipPath id="clip-path">
      <rect id="Rectángulo_373986" data-name="Rectángulo 373986" width="1320" height="506" rx="20" transform="translate(140.333 81)" fill="#0097f1"/>
    </clipPath>
    <clipPath id="clip-path-2">
      <path id="Trazado_799254" data-name="Trazado 799254" d="M4.66,91.6A71.36,71.36,0,1,0,76.021,20.238,71.36,71.36,0,0,0,4.66,91.6" fill="#ffc202"/>
    </clipPath>
    <clipPath id="clip-path-3">
      <rect id="Rectángulo_373970" data-name="Rectángulo 373970" width="28.8" height="28.801" transform="translate(146.161 2.158)" fill="#ffc202"/>
    </clipPath>
    <clipPath id="clip-path-4">
      <rect id="Rectángulo_373971" data-name="Rectángulo 373971" width="28.8" height="28.801" transform="translate(146.161 30.959)" fill="#ffc202"/>
    </clipPath>
    <clipPath id="clip-path-5">
      <path id="Trazado_799258" data-name="Trazado 799258" d="M146.162,88.56h1.156a71.574,71.574,0,0,0-1.156-10.167Z" fill="#ffc202"/>
    </clipPath>
    <clipPath id="clip-path-6">
      <path id="Trazado_799262" data-name="Trazado 799262" d="M146.162,88.56V104.8A71.728,71.728,0,0,0,147.381,91.6q0-1.527-.063-3.039Z" fill="#ffc202"/>
    </clipPath>
    <clipPath id="clip-path-8">
      <rect id="Rectángulo_373972" data-name="Rectángulo 373972" width="28.8" height="28.801" transform="translate(146.161 117.361)" fill="#ffc202"/>
    </clipPath>
    <clipPath id="clip-path-9">
      <rect id="Rectángulo_373973" data-name="Rectángulo 373973" width="28.8" height="28.801" transform="translate(146.161 146.162)" fill="#ffc202"/>
    </clipPath>
    <clipPath id="clip-path-10">
      <rect id="Rectángulo_373974" data-name="Rectángulo 373974" width="28.8" height="28.801" transform="translate(117.361 2.158)" fill="#ffc202"/>
    </clipPath>
    <clipPath id="clip-path-11">
      <path id="Trazado_799287" data-name="Trazado 799287" d="M117.361,59.76H139.9a71.69,71.69,0,0,0-22.542-26.335Z" fill="#ffc202"/>
    </clipPath>
    <clipPath id="clip-path-12">
      <path id="Trazado_799301" data-name="Trazado 799301" d="M117.361,59.76v28.8h28.8V78.393A70.928,70.928,0,0,0,139.9,59.76Z" fill="#ffc202"/>
    </clipPath>
    <clipPath id="clip-path-13">
      <path id="Trazado_799315" data-name="Trazado 799315" d="M117.361,88.56v28.8h25.228a70.839,70.839,0,0,0,3.573-12.557V88.56Z" fill="#ffc202"/>
    </clipPath>
    <clipPath id="clip-path-14">
      <path id="Trazado_799329" data-name="Trazado 799329" d="M117.361,117.361v28.8h4.653a71.521,71.521,0,0,0,20.575-28.8Z" fill="#ffc202"/>
    </clipPath>
    <clipPath id="clip-path-15">
      <path id="Trazado_799338" data-name="Trazado 799338" d="M117.361,146.162v3.61q2.4-1.71,4.653-3.61Z" fill="#ffc202"/>
    </clipPath>
    <clipPath id="clip-path-16">
      <path id="Trazado_799344" data-name="Trazado 799344" d="M88.561,30.959h25.1a70.937,70.937,0,0,0-25.1-9.623Z" fill="#ffc202"/>
    </clipPath>
    <clipPath id="clip-path-17">
      <path id="Trazado_799358" data-name="Trazado 799358" d="M88.561,30.959v28.8h28.8V33.425q-1.811-1.29-3.7-2.466Z" fill="#ffc202"/>
    </clipPath>
    <clipPath id="clip-path-18">
      <rect id="Rectángulo_373975" data-name="Rectángulo 373975" width="28.8" height="28.8" transform="translate(88.561 59.76)" fill="#ffc202"/>
    </clipPath>
    <clipPath id="clip-path-19">
      <rect id="Rectángulo_373976" data-name="Rectángulo 373976" width="28.8" height="28.801" transform="translate(88.561 88.56)" fill="#ffc202"/>
    </clipPath>
    <clipPath id="clip-path-20">
      <rect id="Rectángulo_373977" data-name="Rectángulo 373977" width="28.8" height="28.801" transform="translate(88.561 117.361)" fill="#ffc202"/>
    </clipPath>
    <clipPath id="clip-path-21">
      <path id="Trazado_799406" data-name="Trazado 799406" d="M88.561,146.162v15.7a70.99,70.99,0,0,0,28.8-12.089v-3.61Z" fill="#ffc202"/>
    </clipPath>
    <clipPath id="clip-path-22">
      <path id="Trazado_799412" data-name="Trazado 799412" d="M59.761,22.1v8.86h28.8V21.336a72.048,72.048,0,0,0-28.8.763" fill="#ffc202"/>
    </clipPath>
    <clipPath id="clip-path-23">
      <rect id="Rectángulo_373978" data-name="Rectángulo 373978" width="28.8" height="28.801" transform="translate(59.761 30.959)" fill="#ffc202"/>
    </clipPath>
    <clipPath id="clip-path-24">
      <rect id="Rectángulo_373979" data-name="Rectángulo 373979" width="28.8" height="28.8" transform="translate(59.761 59.76)" fill="#ffc202"/>
    </clipPath>
    <clipPath id="clip-path-25">
      <rect id="Rectángulo_373980" data-name="Rectángulo 373980" width="28.8" height="28.801" transform="translate(59.761 88.56)" fill="#ffc202"/>
    </clipPath>
    <clipPath id="clip-path-26">
      <rect id="Rectángulo_373981" data-name="Rectángulo 373981" width="28.8" height="28.801" transform="translate(59.761 117.361)" fill="#ffc202"/>
    </clipPath>
    <clipPath id="clip-path-27">
      <path id="Trazado_799473" data-name="Trazado 799473" d="M59.761,146.162V161.1a72.048,72.048,0,0,0,28.8.763v-15.7Z" fill="#ffc202"/>
    </clipPath>
    <clipPath id="clip-path-28">
      <path id="Trazado_799479" data-name="Trazado 799479" d="M38.383,30.959H59.761V22.1a70.9,70.9,0,0,0-21.378,8.86" fill="#ffc202"/>
    </clipPath>
    <clipPath id="clip-path-29">
      <path id="Trazado_799493" data-name="Trazado 799493" d="M38.383,30.959a71.6,71.6,0,0,0-7.423,5.3v23.5h28.8v-28.8Z" fill="#ffc202"/>
    </clipPath>
    <clipPath id="clip-path-30">
      <rect id="Rectángulo_373982" data-name="Rectángulo 373982" width="28.801" height="28.8" transform="translate(30.96 59.76)" fill="#ffc202"/>
    </clipPath>
    <clipPath id="clip-path-31">
      <rect id="Rectángulo_373983" data-name="Rectángulo 373983" width="28.801" height="28.801" transform="translate(30.96 88.56)" fill="#ffc202"/>
    </clipPath>
    <clipPath id="clip-path-32">
      <rect id="Rectángulo_373984" data-name="Rectángulo 373984" width="28.801" height="28.801" transform="translate(30.96 117.361)" fill="#ffc202"/>
    </clipPath>
    <clipPath id="clip-path-33">
      <path id="Trazado_799541" data-name="Trazado 799541" d="M30.96,146.162v.773a71.093,71.093,0,0,0,28.8,14.163V146.162Z" fill="#ffc202"/>
    </clipPath>
    <clipPath id="clip-path-35">
      <rect id="Rectángulo_373985" data-name="Rectángulo 373985" width="28.8" height="28.801" transform="translate(2.16 2.158)" fill="#ffc202"/>
    </clipPath>
    <clipPath id="clip-path-36">
      <path id="Trazado_799557" data-name="Trazado 799557" d="M12.139,59.76H30.96v-23.5a71.645,71.645,0,0,0-18.821,23.5" fill="#ffc202"/>
    </clipPath>
    <clipPath id="clip-path-37">
      <path id="Trazado_799568" data-name="Trazado 799568" d="M12.139,59.76a70.98,70.98,0,0,0-7.415,28.8H30.96V59.76Z" fill="#ffc202"/>
    </clipPath>
    <clipPath id="clip-path-38">
      <path id="Trazado_799579" data-name="Trazado 799579" d="M4.724,88.56Q4.661,90.071,4.66,91.6a71.2,71.2,0,0,0,4.792,25.762H30.96V88.56Z" fill="#ffc202"/>
    </clipPath>
    <clipPath id="clip-path-39">
      <path id="Trazado_799590" data-name="Trazado 799590" d="M9.452,117.361a71.514,71.514,0,0,0,20.576,28.8h.932v-28.8Z" fill="#ffc202"/>
    </clipPath>
    <clipPath id="clip-path-40">
      <path id="Trazado_799597" data-name="Trazado 799597" d="M30.028,146.162q.464.39.932.773v-.773Z" fill="#ffc202"/>
    </clipPath>
  </defs>
  <g id="Grupo_1066255" data-name="Grupo 1066255" transform="translate(-288.333 -610)">
    <rect id="Rectángulo_373412" data-name="Rectángulo 373412" width="1320" height="506" rx="20" transform="translate(288.333 610)" fill="url(#radial-gradient)"/>
    <g id="Enmascarar_grupo_1059052" data-name="Enmascarar grupo 1059052" transform="translate(148 529)" clip-path="url(#clip-path)">
      <path id="Trazado_799598" data-name="Trazado 799598" d="M285,400.731c46.108,19.639,86.955,52.493,134.406,68.045s107.873,7.618,133.412-37.957c18.027-32.16,15.158-76.655,40.472-102.576,17.061-17.47,42.713-21.388,66.261-19.627s46.747,8.269,70.355,8.052c53.533-.492,104.976-39.311,123.432-93.142s2.683-119.09-37.834-156.573C778.113,32.359,726.39,22.887,677.334,16.572A2023.337,2023.337,0,0,0,348.663,1.222C275.7,3.764,198.747,11.786,139.4,57.315,60.852,117.57,32.912,226.862,10.248,327.462c-5.394,23.948-21.862,74.3,3.5,90.485,21.645,13.818,56.461-12.543,76.048-19.992C152.36,374.162,223.151,374.391,285,400.731" transform="translate(-17.001 -137.885)" fill="#00dafd" opacity="0.33"/>
      <path id="Trazado_799599" data-name="Trazado 799599" d="M285,400.731c46.108,19.639,86.955,52.493,134.406,68.045s107.873,7.618,133.412-37.957c18.027-32.16,15.158-76.655,40.472-102.576,17.061-17.47,42.713-21.388,66.261-19.627s46.747,8.269,70.355,8.052c53.533-.492,104.976-39.311,123.432-93.142s2.683-119.09-37.834-156.573C778.113,32.359,726.39,22.887,677.334,16.572A2023.337,2023.337,0,0,0,348.663,1.222C275.7,3.764,198.747,11.786,139.4,57.315,60.852,117.57,32.912,226.862,10.248,327.462c-5.394,23.948-21.862,74.3,3.5,90.485,21.645,13.818,56.461-12.543,76.048-19.992C152.36,374.162,223.151,374.391,285,400.731" transform="matrix(-0.998, -0.07, 0.07, -0.998, 1729.348, 822.5)" fill="#4ebdff" opacity="0.33"/>
      <path id="Trazado_799600" data-name="Trazado 799600" d="M285,400.731c46.108,19.639,86.955,52.493,134.406,68.045s107.873,7.618,133.412-37.957c18.027-32.16,15.158-76.655,40.472-102.576,17.061-17.47,42.713-21.388,66.261-19.627s46.747,8.269,70.355,8.052c53.533-.492,104.976-39.311,123.432-93.142s2.683-119.09-37.834-156.573C778.113,32.359,726.39,22.887,677.334,16.572A2023.337,2023.337,0,0,0,348.663,1.222C275.7,3.764,198.747,11.786,139.4,57.315,60.852,117.57,32.912,226.862,10.248,327.462c-5.394,23.948-21.862,74.3,3.5,90.485,21.645,13.818,56.461-12.543,76.048-19.992C152.36,374.162,223.151,374.391,285,400.731" transform="matrix(0.966, 0.259, -0.259, 0.966, -231.662, -299.566)" fill="#0267a4" opacity="0.33"/>
      <path id="Trazado_799601" data-name="Trazado 799601" d="M285,400.731c46.108,19.639,86.955,52.493,134.406,68.045s107.873,7.618,133.412-37.957c18.027-32.16,15.158-76.655,40.472-102.576,17.061-17.47,42.713-21.388,66.261-19.627s46.747,8.269,70.355,8.052c53.533-.492,104.976-39.311,123.432-93.142s2.683-119.09-37.834-156.573C778.113,32.359,726.39,22.887,677.334,16.572A2023.337,2023.337,0,0,0,348.663,1.222C275.7,3.764,198.747,11.786,139.4,57.315,60.852,117.57,32.912,226.862,10.248,327.462c-5.394,23.948-21.862,74.3,3.5,90.485,21.645,13.818,56.461-12.543,76.048-19.992C152.36,374.162,223.151,374.391,285,400.731" transform="matrix(-0.966, 0.259, -0.259, -0.966, 2044, 631.263)" fill="#0267a4" opacity="0.33"/>
      <path id="Trazado_799602" data-name="Trazado 799602" d="M243.557,129.519c-22.477,0-43.395-11.816-63.721-23.3-10.412-5.882-21.176-11.963-31.975-16.352C98.55,69.827,36.505,86.226,3.533,128.01L0,125.224c34.167-43.3,98.462-60.29,149.555-39.523,11.067,4.5,21.961,10.652,32.494,16.6,24.013,13.563,46.688,26.377,71.863,21.787,20.722-3.776,36.127-18.334,52.437-33.745,13.025-12.308,26.492-25.034,43.03-31.933,20.216-8.432,42.861-7.3,62.842-6.309,19.58.974,41.77,2.079,60.941-5.757C490.485,39.262,507.383,20.83,504.576.618L509.033,0c3.152,22.7-14.8,42.594-34.168,50.511C454.773,58.73,432.046,57.6,412,56.6c-19.508-.974-41.613-2.075-60.889,5.969-15.776,6.582-28.94,19.021-41.67,31.051-16.07,15.185-32.688,30.886-54.723,34.9a62.113,62.113,0,0,1-11.16,1" transform="translate(54.123 67)" fill="#00eb6d"/>
      <path id="Trazado_799603" data-name="Trazado 799603" d="M286.154,363.495l-4.491-.3c1.479-21.928,12.9-43.381,31.327-58.859s41.541-23.015,63.385-20.689c11.634,1.241,23.264,4.856,34.51,8.352,19.861,6.174,38.622,12.008,56.921,5.571,18.179-6.4,29.976-23.372,41.383-39.79,2.3-3.317,4.688-6.747,7.074-10.013,14.795-20.249,39-39,62.569-30.914,13.794,4.736,22.441,16.981,30.8,28.823,8.288,11.736,16.117,22.822,28.465,27.139,9.212,3.221,19.009,1.923,29.377.548a147.264,147.264,0,0,1,15.125-1.475c10.967-.324,22.661,4.112,29.093,10.994a19.547,19.547,0,0,1,5.579,15.506l-4.479-.428a14.991,14.991,0,0,0-4.388-12.006c-5.6-5.994-15.917-9.849-25.679-9.569a143.95,143.95,0,0,0-14.659,1.44c-10.436,1.383-21.229,2.813-31.455-.762-13.709-4.793-22.324-16.993-30.656-28.792-8.316-11.775-16.171-22.9-28.588-27.161-21.257-7.3-43.624,10.358-57.474,29.311-2.355,3.225-4.722,6.632-7.013,9.927-11.814,17-24.032,34.588-43.584,41.467-19.706,6.932-40.063.6-59.75-5.52-11.04-3.432-22.456-6.981-33.654-8.175-20.629-2.193-42.517,4.965-60.012,19.66s-28.333,35-29.729,55.716" transform="translate(781.969 246.918)" fill="#00eb6d"/>
      <path id="Trazado_799604" data-name="Trazado 799604" d="M307.553,193.558c-23.619,0-46.167-14.811-60.052-29.853-11.879-12.87-21.207-28.024-30.232-42.679-5.687-9.238-11.567-18.791-18.025-27.669C154.941,32.44,74.964-2.126.238,7.354L0,5.462C37.23.741,75.959,6.472,111.981,22.04s66.726,39.84,88.8,70.2c6.5,8.939,12.4,18.522,18.107,27.789,8.975,14.579,18.256,29.655,30.009,42.387,16.812,18.21,46.542,36.113,75.043,26.606,17.549-5.853,30.419-20.731,42.867-35.117,13.609-15.733,27.685-32,47.893-36.367,21.645-4.679,42.176,5.94,62.028,16.21,17.985,9.307,36.588,18.93,56.116,17.374,29.129-2.319,50.372-28.224,68-52.321L673.108,0l1.538,1.124-72.263,98.8c-17.875,24.442-39.451,50.715-69.382,53.1-20.111,1.587-38.923-8.152-57.143-17.578-20.453-10.582-39.771-20.574-60.752-16.044-19.586,4.233-32.833,19.544-46.857,35.753-12.614,14.581-25.659,29.66-43.7,35.679a53.4,53.4,0,0,1-16.993,2.73" transform="translate(83.01 -17.104)" fill="#fff"/>
      <path id="Trazado_799605" data-name="Trazado 799605" d="M131.727,388.382a52.02,52.02,0,0,1-14.931-2.154l.463-1.558c25.513,7.616,51.956-6.857,68.206-22.934,11.87-11.745,21.368-25.913,30.556-39.618,4.782-7.134,9.726-14.509,14.959-21.479,19.153-25.513,39.779-40.1,61.3-43.357,28.086-4.251,54.152,10.613,79.372,24.981,25.2,14.361,51.272,29.21,78.992,24.55,17.6-2.959,32.783-13.526,47.471-23.744,13.413-9.333,27.282-18.982,43.159-23.095,26.847-6.942,58.992,3.171,83.9,26.4,22.517,21,37.027,48.488,51.061,75.073l-1.437.759c-13.968-26.465-28.416-53.833-50.731-74.644-19.21-17.914-50.942-34.157-82.389-26.013-15.594,4.036-29.342,13.6-42.639,22.853-14.831,10.322-30.172,20.995-48.127,24.016-28.289,4.761-54.61-10.237-80.066-24.742-24.981-14.231-50.814-28.948-78.325-24.787-21.087,3.192-41.357,17.568-60.247,42.725-5.206,6.937-10.138,14.295-14.907,21.41-9.232,13.77-18.778,28.01-30.764,39.868-13.431,13.288-33.733,25.491-54.879,25.491" transform="translate(798.204 267.287)" fill="#fff"/>
      <g id="Grupo_1065037" data-name="Grupo 1065037" transform="translate(83.619 468.41)">
        <g id="Grupo_1064962" data-name="Grupo 1064962">
          <g id="Grupo_1064961" data-name="Grupo 1064961" clip-path="url(#clip-path-2)">
            <g id="Grupo_1064958" data-name="Grupo 1064958">
              <g id="Grupo_1064957" data-name="Grupo 1064957" clip-path="url(#clip-path-3)">
                <path id="Trazado_799250" data-name="Trazado 799250" d="M146.161,33.119a2.16,2.16,0,1,0-2.16-2.16,2.16,2.16,0,0,0,2.16,2.16" fill="#ffc202"/>
              </g>
            </g>
            <g id="Grupo_1064960" data-name="Grupo 1064960">
              <g id="Grupo_1064959" data-name="Grupo 1064959" clip-path="url(#clip-path-4)">
                <path id="Trazado_799251" data-name="Trazado 799251" d="M146.161,61.92A2.16,2.16,0,1,0,144,59.76a2.16,2.16,0,0,0,2.16,2.16" fill="#ffc202"/>
                <path id="Trazado_799252" data-name="Trazado 799252" d="M146.161,47.52A2.16,2.16,0,1,0,144,45.36a2.16,2.16,0,0,0,2.16,2.16" fill="#ffc202"/>
                <path id="Trazado_799253" data-name="Trazado 799253" d="M146.161,33.12A2.159,2.159,0,1,0,144,30.959a2.161,2.161,0,0,0,2.16,2.161" fill="#ffc202"/>
              </g>
            </g>
          </g>
        </g>
        <g id="Grupo_1064964" data-name="Grupo 1064964">
          <g id="Grupo_1064963" data-name="Grupo 1064963" clip-path="url(#clip-path-5)">
            <path id="Trazado_799255" data-name="Trazado 799255" d="M146.161,90.721a2.16,2.16,0,1,0-2.16-2.16,2.16,2.16,0,0,0,2.16,2.16" fill="#ffc202"/>
            <path id="Trazado_799256" data-name="Trazado 799256" d="M146.161,76.32A2.16,2.16,0,1,0,144,74.16a2.16,2.16,0,0,0,2.16,2.16" fill="#ffc202"/>
            <path id="Trazado_799257" data-name="Trazado 799257" d="M146.161,61.921A2.16,2.16,0,1,0,144,59.76a2.161,2.161,0,0,0,2.16,2.161" fill="#ffc202"/>
          </g>
        </g>
        <g id="Grupo_1064966" data-name="Grupo 1064966">
          <g id="Grupo_1064965" data-name="Grupo 1064965" clip-path="url(#clip-path-6)">
            <path id="Trazado_799259" data-name="Trazado 799259" d="M146.161,119.521a2.16,2.16,0,1,0-2.16-2.16,2.16,2.16,0,0,0,2.16,2.16" fill="#ffc202"/>
            <path id="Trazado_799260" data-name="Trazado 799260" d="M146.161,105.121a2.16,2.16,0,1,0-2.16-2.16,2.16,2.16,0,0,0,2.16,2.16" fill="#ffc202"/>
            <path id="Trazado_799261" data-name="Trazado 799261" d="M146.161,90.722A2.16,2.16,0,1,0,144,88.561a2.161,2.161,0,0,0,2.16,2.161" fill="#ffc202"/>
          </g>
        </g>
        <g id="Grupo_1064974" data-name="Grupo 1064974">
          <g id="Grupo_1064973" data-name="Grupo 1064973" clip-path="url(#clip-path-2)">
            <g id="Grupo_1064968" data-name="Grupo 1064968">
              <g id="Grupo_1064967" data-name="Grupo 1064967" clip-path="url(#clip-path-8)">
                <path id="Trazado_799263" data-name="Trazado 799263" d="M146.161,148.322a2.16,2.16,0,1,0-2.16-2.16,2.16,2.16,0,0,0,2.16,2.16" fill="#ffc202"/>
                <path id="Trazado_799264" data-name="Trazado 799264" d="M146.161,133.922a2.16,2.16,0,1,0-2.16-2.16,2.16,2.16,0,0,0,2.16,2.16" fill="#ffc202"/>
                <path id="Trazado_799265" data-name="Trazado 799265" d="M146.161,119.523a2.16,2.16,0,1,0-2.16-2.161,2.161,2.161,0,0,0,2.16,2.161" fill="#ffc202"/>
              </g>
            </g>
            <g id="Grupo_1064970" data-name="Grupo 1064970">
              <g id="Grupo_1064969" data-name="Grupo 1064969" clip-path="url(#clip-path-9)">
                <path id="Trazado_799266" data-name="Trazado 799266" d="M146.161,162.723a2.16,2.16,0,1,0-2.16-2.16,2.16,2.16,0,0,0,2.16,2.16" fill="#ffc202"/>
                <path id="Trazado_799267" data-name="Trazado 799267" d="M146.161,148.323a2.16,2.16,0,1,0-2.16-2.161,2.161,2.161,0,0,0,2.16,2.161" fill="#ffc202"/>
              </g>
            </g>
            <g id="Grupo_1064972" data-name="Grupo 1064972">
              <g id="Grupo_1064971" data-name="Grupo 1064971" clip-path="url(#clip-path-10)">
                <path id="Trazado_799268" data-name="Trazado 799268" d="M146.161,33.119a2.16,2.16,0,1,0-2.16-2.16,2.16,2.16,0,0,0,2.16,2.16" fill="#ffc202"/>
                <path id="Trazado_799269" data-name="Trazado 799269" d="M131.761,33.119a2.16,2.16,0,1,0-2.16-2.16,2.161,2.161,0,0,0,2.16,2.16" fill="#ffc202"/>
                <path id="Trazado_799270" data-name="Trazado 799270" d="M124.561,25.918a2.159,2.159,0,1,0-2.16-2.16,2.161,2.161,0,0,0,2.16,2.16" fill="#ffc202"/>
                <path id="Trazado_799271" data-name="Trazado 799271" d="M138.961,25.918a2.159,2.159,0,1,0-2.16-2.16,2.161,2.161,0,0,0,2.16,2.16" fill="#ffc202"/>
                <path id="Trazado_799272" data-name="Trazado 799272" d="M117.361,33.119a2.16,2.16,0,1,0-2.16-2.16,2.16,2.16,0,0,0,2.16,2.16" fill="#ffc202"/>
              </g>
            </g>
          </g>
        </g>
        <g id="Grupo_1064976" data-name="Grupo 1064976">
          <g id="Grupo_1064975" data-name="Grupo 1064975" clip-path="url(#clip-path-11)">
            <path id="Trazado_799274" data-name="Trazado 799274" d="M146.161,61.92A2.16,2.16,0,1,0,144,59.76a2.16,2.16,0,0,0,2.16,2.16" fill="#ffc202"/>
            <path id="Trazado_799275" data-name="Trazado 799275" d="M131.761,61.92a2.16,2.16,0,1,0-2.16-2.16,2.161,2.161,0,0,0,2.16,2.16" fill="#ffc202"/>
            <path id="Trazado_799276" data-name="Trazado 799276" d="M146.161,47.52A2.16,2.16,0,1,0,144,45.36a2.16,2.16,0,0,0,2.16,2.16" fill="#ffc202"/>
            <path id="Trazado_799277" data-name="Trazado 799277" d="M131.761,47.52a2.16,2.16,0,1,0-2.16-2.16,2.161,2.161,0,0,0,2.16,2.16" fill="#ffc202"/>
            <path id="Trazado_799278" data-name="Trazado 799278" d="M124.561,54.719a2.159,2.159,0,1,0-2.16-2.16,2.161,2.161,0,0,0,2.16,2.16" fill="#ffc202"/>
            <path id="Trazado_799279" data-name="Trazado 799279" d="M138.961,54.719a2.159,2.159,0,1,0-2.16-2.16,2.161,2.161,0,0,0,2.16,2.16" fill="#ffc202"/>
            <path id="Trazado_799280" data-name="Trazado 799280" d="M124.561,40.318a2.159,2.159,0,1,0-2.16-2.158,2.16,2.16,0,0,0,2.16,2.158" fill="#ffc202"/>
            <path id="Trazado_799281" data-name="Trazado 799281" d="M138.961,40.318a2.159,2.159,0,1,0-2.16-2.158,2.161,2.161,0,0,0,2.16,2.158" fill="#ffc202"/>
            <path id="Trazado_799282" data-name="Trazado 799282" d="M117.361,61.92a2.16,2.16,0,1,0-2.16-2.16,2.16,2.16,0,0,0,2.16,2.16" fill="#ffc202"/>
            <path id="Trazado_799283" data-name="Trazado 799283" d="M117.361,47.52a2.16,2.16,0,1,0-2.16-2.16,2.16,2.16,0,0,0,2.16,2.16" fill="#ffc202"/>
            <path id="Trazado_799284" data-name="Trazado 799284" d="M146.161,33.12A2.159,2.159,0,1,0,144,30.959a2.161,2.161,0,0,0,2.16,2.161" fill="#ffc202"/>
            <path id="Trazado_799285" data-name="Trazado 799285" d="M131.761,33.12a2.159,2.159,0,1,0-2.16-2.161,2.161,2.161,0,0,0,2.16,2.161" fill="#ffc202"/>
            <path id="Trazado_799286" data-name="Trazado 799286" d="M117.361,33.12a2.159,2.159,0,1,0-2.16-2.161,2.161,2.161,0,0,0,2.16,2.161" fill="#ffc202"/>
          </g>
        </g>
        <g id="Grupo_1064978" data-name="Grupo 1064978">
          <g id="Grupo_1064977" data-name="Grupo 1064977" clip-path="url(#clip-path-12)">
            <path id="Trazado_799288" data-name="Trazado 799288" d="M146.161,90.721a2.16,2.16,0,1,0-2.16-2.16,2.16,2.16,0,0,0,2.16,2.16" fill="#ffc202"/>
            <path id="Trazado_799289" data-name="Trazado 799289" d="M131.761,90.721a2.16,2.16,0,1,0-2.16-2.16,2.161,2.161,0,0,0,2.16,2.16" fill="#ffc202"/>
            <path id="Trazado_799290" data-name="Trazado 799290" d="M146.161,76.32A2.16,2.16,0,1,0,144,74.16a2.16,2.16,0,0,0,2.16,2.16" fill="#ffc202"/>
            <path id="Trazado_799291" data-name="Trazado 799291" d="M131.761,76.32a2.16,2.16,0,1,0-2.16-2.16,2.161,2.161,0,0,0,2.16,2.16" fill="#ffc202"/>
            <path id="Trazado_799292" data-name="Trazado 799292" d="M124.561,83.52a2.159,2.159,0,1,0-2.16-2.16,2.161,2.161,0,0,0,2.16,2.16" fill="#ffc202"/>
            <path id="Trazado_799293" data-name="Trazado 799293" d="M138.961,83.52a2.159,2.159,0,1,0-2.16-2.16,2.161,2.161,0,0,0,2.16,2.16" fill="#ffc202"/>
            <path id="Trazado_799294" data-name="Trazado 799294" d="M124.561,69.119a2.159,2.159,0,1,0-2.16-2.158,2.16,2.16,0,0,0,2.16,2.158" fill="#ffc202"/>
            <path id="Trazado_799295" data-name="Trazado 799295" d="M138.961,69.119a2.159,2.159,0,1,0-2.16-2.158,2.161,2.161,0,0,0,2.16,2.158" fill="#ffc202"/>
            <path id="Trazado_799296" data-name="Trazado 799296" d="M117.361,90.721a2.16,2.16,0,1,0-2.16-2.16,2.16,2.16,0,0,0,2.16,2.16" fill="#ffc202"/>
            <path id="Trazado_799297" data-name="Trazado 799297" d="M117.361,76.32a2.16,2.16,0,1,0-2.16-2.16,2.16,2.16,0,0,0,2.16,2.16" fill="#ffc202"/>
            <path id="Trazado_799298" data-name="Trazado 799298" d="M146.161,61.921A2.16,2.16,0,1,0,144,59.76a2.161,2.161,0,0,0,2.16,2.161" fill="#ffc202"/>
            <path id="Trazado_799299" data-name="Trazado 799299" d="M131.761,61.921a2.16,2.16,0,1,0-2.16-2.161,2.161,2.161,0,0,0,2.16,2.161" fill="#ffc202"/>
            <path id="Trazado_799300" data-name="Trazado 799300" d="M117.361,61.921a2.16,2.16,0,1,0-2.16-2.161,2.161,2.161,0,0,0,2.16,2.161" fill="#ffc202"/>
          </g>
        </g>
        <g id="Grupo_1064980" data-name="Grupo 1064980">
          <g id="Grupo_1064979" data-name="Grupo 1064979" clip-path="url(#clip-path-13)">
            <path id="Trazado_799302" data-name="Trazado 799302" d="M146.161,119.521a2.16,2.16,0,1,0-2.16-2.16,2.16,2.16,0,0,0,2.16,2.16" fill="#ffc202"/>
            <path id="Trazado_799303" data-name="Trazado 799303" d="M131.761,119.521a2.16,2.16,0,1,0-2.16-2.16,2.16,2.16,0,0,0,2.16,2.16" fill="#ffc202"/>
            <path id="Trazado_799304" data-name="Trazado 799304" d="M146.161,105.121a2.16,2.16,0,1,0-2.16-2.16,2.16,2.16,0,0,0,2.16,2.16" fill="#ffc202"/>
            <path id="Trazado_799305" data-name="Trazado 799305" d="M131.761,105.121a2.16,2.16,0,1,0-2.16-2.16,2.161,2.161,0,0,0,2.16,2.16" fill="#ffc202"/>
            <path id="Trazado_799306" data-name="Trazado 799306" d="M124.561,112.32a2.159,2.159,0,1,0-2.16-2.16,2.161,2.161,0,0,0,2.16,2.16" fill="#ffc202"/>
            <path id="Trazado_799307" data-name="Trazado 799307" d="M138.961,112.32a2.159,2.159,0,1,0-2.16-2.16,2.161,2.161,0,0,0,2.16,2.16" fill="#ffc202"/>
            <path id="Trazado_799308" data-name="Trazado 799308" d="M124.561,97.92a2.159,2.159,0,1,0-2.16-2.158,2.16,2.16,0,0,0,2.16,2.158" fill="#ffc202"/>
            <path id="Trazado_799309" data-name="Trazado 799309" d="M138.961,97.92a2.159,2.159,0,1,0-2.16-2.158,2.161,2.161,0,0,0,2.16,2.158" fill="#ffc202"/>
            <path id="Trazado_799310" data-name="Trazado 799310" d="M117.361,119.521a2.16,2.16,0,1,0-2.16-2.16,2.16,2.16,0,0,0,2.16,2.16" fill="#ffc202"/>
            <path id="Trazado_799311" data-name="Trazado 799311" d="M117.361,105.121a2.16,2.16,0,1,0-2.16-2.16,2.16,2.16,0,0,0,2.16,2.16" fill="#ffc202"/>
            <path id="Trazado_799312" data-name="Trazado 799312" d="M146.161,90.722A2.16,2.16,0,1,0,144,88.561a2.161,2.161,0,0,0,2.16,2.161" fill="#ffc202"/>
            <path id="Trazado_799313" data-name="Trazado 799313" d="M131.761,90.722a2.16,2.16,0,1,0-2.16-2.161,2.161,2.161,0,0,0,2.16,2.161" fill="#ffc202"/>
            <path id="Trazado_799314" data-name="Trazado 799314" d="M117.361,90.722a2.16,2.16,0,1,0-2.16-2.161,2.161,2.161,0,0,0,2.16,2.161" fill="#ffc202"/>
          </g>
        </g>
        <g id="Grupo_1064982" data-name="Grupo 1064982">
          <g id="Grupo_1064981" data-name="Grupo 1064981" clip-path="url(#clip-path-14)">
            <path id="Trazado_799316" data-name="Trazado 799316" d="M146.161,148.322a2.16,2.16,0,1,0-2.16-2.16,2.16,2.16,0,0,0,2.16,2.16" fill="#ffc202"/>
            <path id="Trazado_799317" data-name="Trazado 799317" d="M131.761,148.322a2.16,2.16,0,1,0-2.16-2.16,2.161,2.161,0,0,0,2.16,2.16" fill="#ffc202"/>
            <path id="Trazado_799318" data-name="Trazado 799318" d="M146.161,133.922a2.16,2.16,0,1,0-2.16-2.16,2.16,2.16,0,0,0,2.16,2.16" fill="#ffc202"/>
            <path id="Trazado_799319" data-name="Trazado 799319" d="M131.761,133.922a2.16,2.16,0,1,0-2.16-2.16,2.161,2.161,0,0,0,2.16,2.16" fill="#ffc202"/>
            <path id="Trazado_799320" data-name="Trazado 799320" d="M124.561,141.121a2.159,2.159,0,1,0-2.16-2.16,2.161,2.161,0,0,0,2.16,2.16" fill="#ffc202"/>
            <path id="Trazado_799321" data-name="Trazado 799321" d="M138.961,141.121a2.159,2.159,0,1,0-2.16-2.16,2.161,2.161,0,0,0,2.16,2.16" fill="#ffc202"/>
            <path id="Trazado_799322" data-name="Trazado 799322" d="M124.561,126.721a2.159,2.159,0,1,0-2.16-2.158,2.16,2.16,0,0,0,2.16,2.158" fill="#ffc202"/>
            <path id="Trazado_799323" data-name="Trazado 799323" d="M138.961,126.721a2.159,2.159,0,1,0-2.16-2.158,2.161,2.161,0,0,0,2.16,2.158" fill="#ffc202"/>
            <path id="Trazado_799324" data-name="Trazado 799324" d="M117.361,148.322a2.16,2.16,0,1,0-2.16-2.16,2.16,2.16,0,0,0,2.16,2.16" fill="#ffc202"/>
            <path id="Trazado_799325" data-name="Trazado 799325" d="M117.361,133.922a2.16,2.16,0,1,0-2.16-2.16,2.16,2.16,0,0,0,2.16,2.16" fill="#ffc202"/>
            <path id="Trazado_799326" data-name="Trazado 799326" d="M146.161,119.523a2.16,2.16,0,1,0-2.16-2.161,2.161,2.161,0,0,0,2.16,2.161" fill="#ffc202"/>
            <path id="Trazado_799327" data-name="Trazado 799327" d="M131.761,119.523a2.16,2.16,0,1,0-2.16-2.161,2.161,2.161,0,0,0,2.16,2.161" fill="#ffc202"/>
            <path id="Trazado_799328" data-name="Trazado 799328" d="M117.361,119.523a2.16,2.16,0,1,0-2.16-2.161,2.161,2.161,0,0,0,2.16,2.161" fill="#ffc202"/>
          </g>
        </g>
        <g id="Grupo_1064984" data-name="Grupo 1064984">
          <g id="Grupo_1064983" data-name="Grupo 1064983" clip-path="url(#clip-path-15)">
            <path id="Trazado_799330" data-name="Trazado 799330" d="M146.161,162.723a2.16,2.16,0,1,0-2.16-2.16,2.16,2.16,0,0,0,2.16,2.16" fill="#ffc202"/>
            <path id="Trazado_799331" data-name="Trazado 799331" d="M131.761,162.723a2.16,2.16,0,1,0-2.16-2.16,2.161,2.161,0,0,0,2.16,2.16" fill="#ffc202"/>
            <path id="Trazado_799332" data-name="Trazado 799332" d="M124.561,155.521a2.159,2.159,0,1,0-2.16-2.158,2.16,2.16,0,0,0,2.16,2.158" fill="#ffc202"/>
            <path id="Trazado_799333" data-name="Trazado 799333" d="M138.961,155.521a2.159,2.159,0,1,0-2.16-2.158,2.161,2.161,0,0,0,2.16,2.158" fill="#ffc202"/>
            <path id="Trazado_799334" data-name="Trazado 799334" d="M117.361,162.723a2.16,2.16,0,1,0-2.16-2.16,2.16,2.16,0,0,0,2.16,2.16" fill="#ffc202"/>
            <path id="Trazado_799335" data-name="Trazado 799335" d="M146.161,148.323a2.16,2.16,0,1,0-2.16-2.161,2.161,2.161,0,0,0,2.16,2.161" fill="#ffc202"/>
            <path id="Trazado_799336" data-name="Trazado 799336" d="M131.761,148.323a2.16,2.16,0,1,0-2.16-2.161,2.161,2.161,0,0,0,2.16,2.161" fill="#ffc202"/>
            <path id="Trazado_799337" data-name="Trazado 799337" d="M117.361,148.323a2.16,2.16,0,1,0-2.16-2.161,2.161,2.161,0,0,0,2.16,2.161" fill="#ffc202"/>
          </g>
        </g>
        <g id="Grupo_1064986" data-name="Grupo 1064986">
          <g id="Grupo_1064985" data-name="Grupo 1064985" clip-path="url(#clip-path-16)">
            <path id="Trazado_799339" data-name="Trazado 799339" d="M117.361,33.119a2.16,2.16,0,1,0-2.16-2.16,2.16,2.16,0,0,0,2.16,2.16" fill="#ffc202"/>
            <path id="Trazado_799340" data-name="Trazado 799340" d="M102.961,33.119a2.16,2.16,0,1,0-2.16-2.16,2.161,2.161,0,0,0,2.16,2.16" fill="#ffc202"/>
            <path id="Trazado_799341" data-name="Trazado 799341" d="M95.761,25.918a2.159,2.159,0,1,0-2.16-2.16,2.161,2.161,0,0,0,2.16,2.16" fill="#ffc202"/>
            <path id="Trazado_799342" data-name="Trazado 799342" d="M110.161,25.918a2.159,2.159,0,1,0-2.16-2.16,2.161,2.161,0,0,0,2.16,2.16" fill="#ffc202"/>
            <path id="Trazado_799343" data-name="Trazado 799343" d="M88.561,33.119a2.16,2.16,0,1,0-2.16-2.16,2.16,2.16,0,0,0,2.16,2.16" fill="#ffc202"/>
          </g>
        </g>
        <g id="Grupo_1064988" data-name="Grupo 1064988">
          <g id="Grupo_1064987" data-name="Grupo 1064987" clip-path="url(#clip-path-17)">
            <path id="Trazado_799345" data-name="Trazado 799345" d="M117.361,61.92a2.16,2.16,0,1,0-2.16-2.16,2.16,2.16,0,0,0,2.16,2.16" fill="#ffc202"/>
            <path id="Trazado_799346" data-name="Trazado 799346" d="M102.961,61.92a2.16,2.16,0,1,0-2.16-2.16,2.161,2.161,0,0,0,2.16,2.16" fill="#ffc202"/>
            <path id="Trazado_799347" data-name="Trazado 799347" d="M117.361,47.52a2.16,2.16,0,1,0-2.16-2.16,2.16,2.16,0,0,0,2.16,2.16" fill="#ffc202"/>
            <path id="Trazado_799348" data-name="Trazado 799348" d="M102.961,47.52a2.16,2.16,0,1,0-2.16-2.16,2.161,2.161,0,0,0,2.16,2.16" fill="#ffc202"/>
            <path id="Trazado_799349" data-name="Trazado 799349" d="M95.761,54.719a2.159,2.159,0,1,0-2.16-2.16,2.161,2.161,0,0,0,2.16,2.16" fill="#ffc202"/>
            <path id="Trazado_799350" data-name="Trazado 799350" d="M110.161,54.719a2.159,2.159,0,1,0-2.16-2.16,2.161,2.161,0,0,0,2.16,2.16" fill="#ffc202"/>
            <path id="Trazado_799351" data-name="Trazado 799351" d="M95.761,40.318A2.159,2.159,0,1,0,93.6,38.16a2.16,2.16,0,0,0,2.16,2.158" fill="#ffc202"/>
            <path id="Trazado_799352" data-name="Trazado 799352" d="M110.161,40.318A2.159,2.159,0,1,0,108,38.16a2.161,2.161,0,0,0,2.16,2.158" fill="#ffc202"/>
            <path id="Trazado_799353" data-name="Trazado 799353" d="M88.561,61.92a2.16,2.16,0,1,0-2.16-2.16,2.16,2.16,0,0,0,2.16,2.16" fill="#ffc202"/>
            <path id="Trazado_799354" data-name="Trazado 799354" d="M88.561,47.52a2.16,2.16,0,1,0-2.16-2.16,2.16,2.16,0,0,0,2.16,2.16" fill="#ffc202"/>
            <path id="Trazado_799355" data-name="Trazado 799355" d="M117.361,33.12a2.159,2.159,0,1,0-2.16-2.161,2.161,2.161,0,0,0,2.16,2.161" fill="#ffc202"/>
            <path id="Trazado_799356" data-name="Trazado 799356" d="M102.961,33.12a2.159,2.159,0,1,0-2.16-2.161,2.161,2.161,0,0,0,2.16,2.161" fill="#ffc202"/>
            <path id="Trazado_799357" data-name="Trazado 799357" d="M88.561,33.12a2.159,2.159,0,1,0-2.16-2.161,2.161,2.161,0,0,0,2.16,2.161" fill="#ffc202"/>
          </g>
        </g>
        <g id="Grupo_1064990" data-name="Grupo 1064990">
          <g id="Grupo_1064989" data-name="Grupo 1064989" clip-path="url(#clip-path-18)">
            <path id="Trazado_799359" data-name="Trazado 799359" d="M117.361,90.721a2.16,2.16,0,1,0-2.16-2.16,2.16,2.16,0,0,0,2.16,2.16" fill="#ffc202"/>
            <path id="Trazado_799360" data-name="Trazado 799360" d="M102.961,90.721a2.16,2.16,0,1,0-2.16-2.16,2.161,2.161,0,0,0,2.16,2.16" fill="#ffc202"/>
            <path id="Trazado_799361" data-name="Trazado 799361" d="M117.361,76.32a2.16,2.16,0,1,0-2.16-2.16,2.16,2.16,0,0,0,2.16,2.16" fill="#ffc202"/>
            <path id="Trazado_799362" data-name="Trazado 799362" d="M102.961,76.32a2.16,2.16,0,1,0-2.16-2.16,2.161,2.161,0,0,0,2.16,2.16" fill="#ffc202"/>
            <path id="Trazado_799363" data-name="Trazado 799363" d="M95.761,83.52a2.159,2.159,0,1,0-2.16-2.16,2.161,2.161,0,0,0,2.16,2.16" fill="#ffc202"/>
            <path id="Trazado_799364" data-name="Trazado 799364" d="M110.161,83.52A2.159,2.159,0,1,0,108,81.36a2.161,2.161,0,0,0,2.16,2.16" fill="#ffc202"/>
            <path id="Trazado_799365" data-name="Trazado 799365" d="M95.761,69.119a2.159,2.159,0,1,0-2.16-2.158,2.16,2.16,0,0,0,2.16,2.158" fill="#ffc202"/>
            <path id="Trazado_799366" data-name="Trazado 799366" d="M110.161,69.119A2.159,2.159,0,1,0,108,66.961a2.161,2.161,0,0,0,2.16,2.158" fill="#ffc202"/>
            <path id="Trazado_799367" data-name="Trazado 799367" d="M88.561,90.721a2.16,2.16,0,1,0-2.16-2.16,2.16,2.16,0,0,0,2.16,2.16" fill="#ffc202"/>
            <path id="Trazado_799368" data-name="Trazado 799368" d="M88.561,76.32a2.16,2.16,0,1,0-2.16-2.16,2.16,2.16,0,0,0,2.16,2.16" fill="#ffc202"/>
            <path id="Trazado_799369" data-name="Trazado 799369" d="M117.361,61.921a2.16,2.16,0,1,0-2.16-2.161,2.161,2.161,0,0,0,2.16,2.161" fill="#ffc202"/>
            <path id="Trazado_799370" data-name="Trazado 799370" d="M102.961,61.921a2.16,2.16,0,1,0-2.16-2.161,2.161,2.161,0,0,0,2.16,2.161" fill="#ffc202"/>
            <path id="Trazado_799371" data-name="Trazado 799371" d="M88.561,61.921A2.16,2.16,0,1,0,86.4,59.76a2.161,2.161,0,0,0,2.16,2.161" fill="#ffc202"/>
          </g>
        </g>
        <g id="Grupo_1064992" data-name="Grupo 1064992">
          <g id="Grupo_1064991" data-name="Grupo 1064991" clip-path="url(#clip-path-19)">
            <path id="Trazado_799372" data-name="Trazado 799372" d="M117.361,119.521a2.16,2.16,0,1,0-2.16-2.16,2.16,2.16,0,0,0,2.16,2.16" fill="#ffc202"/>
            <path id="Trazado_799373" data-name="Trazado 799373" d="M102.961,119.521a2.16,2.16,0,1,0-2.16-2.16,2.16,2.16,0,0,0,2.16,2.16" fill="#ffc202"/>
            <path id="Trazado_799374" data-name="Trazado 799374" d="M117.361,105.121a2.16,2.16,0,1,0-2.16-2.16,2.16,2.16,0,0,0,2.16,2.16" fill="#ffc202"/>
            <path id="Trazado_799375" data-name="Trazado 799375" d="M102.961,105.121a2.16,2.16,0,1,0-2.16-2.16,2.161,2.161,0,0,0,2.16,2.16" fill="#ffc202"/>
            <path id="Trazado_799376" data-name="Trazado 799376" d="M95.761,112.32a2.159,2.159,0,1,0-2.16-2.16,2.161,2.161,0,0,0,2.16,2.16" fill="#ffc202"/>
            <path id="Trazado_799377" data-name="Trazado 799377" d="M110.161,112.32a2.159,2.159,0,1,0-2.16-2.16,2.161,2.161,0,0,0,2.16,2.16" fill="#ffc202"/>
            <path id="Trazado_799378" data-name="Trazado 799378" d="M95.761,97.92a2.159,2.159,0,1,0-2.16-2.158,2.16,2.16,0,0,0,2.16,2.158" fill="#ffc202"/>
            <path id="Trazado_799379" data-name="Trazado 799379" d="M110.161,97.92A2.159,2.159,0,1,0,108,95.762a2.161,2.161,0,0,0,2.16,2.158" fill="#ffc202"/>
            <path id="Trazado_799380" data-name="Trazado 799380" d="M88.561,119.521a2.16,2.16,0,1,0-2.16-2.16,2.16,2.16,0,0,0,2.16,2.16" fill="#ffc202"/>
            <path id="Trazado_799381" data-name="Trazado 799381" d="M88.561,105.121a2.16,2.16,0,1,0-2.16-2.16,2.16,2.16,0,0,0,2.16,2.16" fill="#ffc202"/>
            <path id="Trazado_799382" data-name="Trazado 799382" d="M117.361,90.722a2.16,2.16,0,1,0-2.16-2.161,2.161,2.161,0,0,0,2.16,2.161" fill="#ffc202"/>
            <path id="Trazado_799383" data-name="Trazado 799383" d="M102.961,90.722a2.16,2.16,0,1,0-2.16-2.161,2.161,2.161,0,0,0,2.16,2.161" fill="#ffc202"/>
            <path id="Trazado_799384" data-name="Trazado 799384" d="M88.561,90.722a2.16,2.16,0,1,0-2.16-2.161,2.161,2.161,0,0,0,2.16,2.161" fill="#ffc202"/>
          </g>
        </g>
        <g id="Grupo_1064994" data-name="Grupo 1064994">
          <g id="Grupo_1064993" data-name="Grupo 1064993" clip-path="url(#clip-path-20)">
            <path id="Trazado_799385" data-name="Trazado 799385" d="M117.361,148.322a2.16,2.16,0,1,0-2.16-2.16,2.16,2.16,0,0,0,2.16,2.16" fill="#ffc202"/>
            <path id="Trazado_799386" data-name="Trazado 799386" d="M102.961,148.322a2.16,2.16,0,1,0-2.16-2.16,2.161,2.161,0,0,0,2.16,2.16" fill="#ffc202"/>
            <path id="Trazado_799387" data-name="Trazado 799387" d="M117.361,133.922a2.16,2.16,0,1,0-2.16-2.16,2.16,2.16,0,0,0,2.16,2.16" fill="#ffc202"/>
            <path id="Trazado_799388" data-name="Trazado 799388" d="M102.961,133.922a2.16,2.16,0,1,0-2.16-2.16,2.161,2.161,0,0,0,2.16,2.16" fill="#ffc202"/>
            <path id="Trazado_799389" data-name="Trazado 799389" d="M95.761,141.121a2.159,2.159,0,1,0-2.16-2.16,2.161,2.161,0,0,0,2.16,2.16" fill="#ffc202"/>
            <path id="Trazado_799390" data-name="Trazado 799390" d="M110.161,141.121a2.159,2.159,0,1,0-2.16-2.16,2.161,2.161,0,0,0,2.16,2.16" fill="#ffc202"/>
            <path id="Trazado_799391" data-name="Trazado 799391" d="M95.761,126.721a2.159,2.159,0,1,0-2.16-2.158,2.16,2.16,0,0,0,2.16,2.158" fill="#ffc202"/>
            <path id="Trazado_799392" data-name="Trazado 799392" d="M110.161,126.721a2.159,2.159,0,1,0-2.16-2.158,2.161,2.161,0,0,0,2.16,2.158" fill="#ffc202"/>
            <path id="Trazado_799393" data-name="Trazado 799393" d="M88.561,148.322a2.16,2.16,0,1,0-2.16-2.16,2.16,2.16,0,0,0,2.16,2.16" fill="#ffc202"/>
            <path id="Trazado_799394" data-name="Trazado 799394" d="M88.561,133.922a2.16,2.16,0,1,0-2.16-2.16,2.16,2.16,0,0,0,2.16,2.16" fill="#ffc202"/>
            <path id="Trazado_799395" data-name="Trazado 799395" d="M117.361,119.523a2.16,2.16,0,1,0-2.16-2.161,2.161,2.161,0,0,0,2.16,2.161" fill="#ffc202"/>
            <path id="Trazado_799396" data-name="Trazado 799396" d="M102.961,119.523a2.16,2.16,0,1,0-2.16-2.161,2.161,2.161,0,0,0,2.16,2.161" fill="#ffc202"/>
            <path id="Trazado_799397" data-name="Trazado 799397" d="M88.561,119.523a2.16,2.16,0,1,0-2.16-2.161,2.161,2.161,0,0,0,2.16,2.161" fill="#ffc202"/>
          </g>
        </g>
        <g id="Grupo_1064996" data-name="Grupo 1064996">
          <g id="Grupo_1064995" data-name="Grupo 1064995" clip-path="url(#clip-path-21)">
            <path id="Trazado_799398" data-name="Trazado 799398" d="M117.361,162.723a2.16,2.16,0,1,0-2.16-2.16,2.16,2.16,0,0,0,2.16,2.16" fill="#ffc202"/>
            <path id="Trazado_799399" data-name="Trazado 799399" d="M102.961,162.723a2.16,2.16,0,1,0-2.16-2.16,2.161,2.161,0,0,0,2.16,2.16" fill="#ffc202"/>
            <path id="Trazado_799400" data-name="Trazado 799400" d="M95.761,155.521a2.159,2.159,0,1,0-2.16-2.158,2.16,2.16,0,0,0,2.16,2.158" fill="#ffc202"/>
            <path id="Trazado_799401" data-name="Trazado 799401" d="M110.161,155.521a2.159,2.159,0,1,0-2.16-2.158,2.161,2.161,0,0,0,2.16,2.158" fill="#ffc202"/>
            <path id="Trazado_799402" data-name="Trazado 799402" d="M88.561,162.723a2.16,2.16,0,1,0-2.16-2.16,2.16,2.16,0,0,0,2.16,2.16" fill="#ffc202"/>
            <path id="Trazado_799403" data-name="Trazado 799403" d="M117.361,148.323a2.16,2.16,0,1,0-2.16-2.161,2.161,2.161,0,0,0,2.16,2.161" fill="#ffc202"/>
            <path id="Trazado_799404" data-name="Trazado 799404" d="M102.961,148.323a2.16,2.16,0,1,0-2.16-2.161,2.161,2.161,0,0,0,2.16,2.161" fill="#ffc202"/>
            <path id="Trazado_799405" data-name="Trazado 799405" d="M88.561,148.323a2.16,2.16,0,1,0-2.16-2.161,2.161,2.161,0,0,0,2.16,2.161" fill="#ffc202"/>
          </g>
        </g>
        <g id="Grupo_1064998" data-name="Grupo 1064998">
          <g id="Grupo_1064997" data-name="Grupo 1064997" clip-path="url(#clip-path-22)">
            <path id="Trazado_799407" data-name="Trazado 799407" d="M88.561,33.119a2.16,2.16,0,1,0-2.16-2.16,2.16,2.16,0,0,0,2.16,2.16" fill="#ffc202"/>
            <path id="Trazado_799408" data-name="Trazado 799408" d="M74.161,33.119A2.16,2.16,0,1,0,72,30.959a2.161,2.161,0,0,0,2.16,2.16" fill="#ffc202"/>
            <path id="Trazado_799409" data-name="Trazado 799409" d="M66.96,25.918a2.159,2.159,0,1,0-2.16-2.16,2.161,2.161,0,0,0,2.16,2.16" fill="#ffc202"/>
            <path id="Trazado_799410" data-name="Trazado 799410" d="M81.361,25.918a2.159,2.159,0,1,0-2.16-2.16,2.161,2.161,0,0,0,2.16,2.16" fill="#ffc202"/>
            <path id="Trazado_799411" data-name="Trazado 799411" d="M59.761,33.119a2.16,2.16,0,1,0-2.16-2.16,2.16,2.16,0,0,0,2.16,2.16" fill="#ffc202"/>
          </g>
        </g>
        <g id="Grupo_1065000" data-name="Grupo 1065000">
          <g id="Grupo_1064999" data-name="Grupo 1064999" clip-path="url(#clip-path-23)">
            <path id="Trazado_799413" data-name="Trazado 799413" d="M88.561,61.92a2.16,2.16,0,1,0-2.16-2.16,2.16,2.16,0,0,0,2.16,2.16" fill="#ffc202"/>
            <path id="Trazado_799414" data-name="Trazado 799414" d="M74.161,61.92A2.16,2.16,0,1,0,72,59.76a2.161,2.161,0,0,0,2.16,2.16" fill="#ffc202"/>
            <path id="Trazado_799415" data-name="Trazado 799415" d="M88.561,47.52a2.16,2.16,0,1,0-2.16-2.16,2.16,2.16,0,0,0,2.16,2.16" fill="#ffc202"/>
            <path id="Trazado_799416" data-name="Trazado 799416" d="M74.161,47.52A2.16,2.16,0,1,0,72,45.36a2.161,2.161,0,0,0,2.16,2.16" fill="#ffc202"/>
            <path id="Trazado_799417" data-name="Trazado 799417" d="M66.96,54.719a2.159,2.159,0,1,0-2.16-2.16,2.161,2.161,0,0,0,2.16,2.16" fill="#ffc202"/>
            <path id="Trazado_799418" data-name="Trazado 799418" d="M81.361,54.719a2.159,2.159,0,1,0-2.16-2.16,2.161,2.161,0,0,0,2.16,2.16" fill="#ffc202"/>
            <path id="Trazado_799419" data-name="Trazado 799419" d="M66.96,40.318A2.159,2.159,0,1,0,64.8,38.16a2.16,2.16,0,0,0,2.16,2.158" fill="#ffc202"/>
            <path id="Trazado_799420" data-name="Trazado 799420" d="M81.361,40.318A2.159,2.159,0,1,0,79.2,38.16a2.161,2.161,0,0,0,2.16,2.158" fill="#ffc202"/>
            <path id="Trazado_799421" data-name="Trazado 799421" d="M59.761,61.92a2.16,2.16,0,1,0-2.16-2.16,2.16,2.16,0,0,0,2.16,2.16" fill="#ffc202"/>
            <path id="Trazado_799422" data-name="Trazado 799422" d="M59.761,47.52a2.16,2.16,0,1,0-2.16-2.16,2.16,2.16,0,0,0,2.16,2.16" fill="#ffc202"/>
            <path id="Trazado_799423" data-name="Trazado 799423" d="M88.561,33.12a2.159,2.159,0,1,0-2.16-2.161,2.161,2.161,0,0,0,2.16,2.161" fill="#ffc202"/>
            <path id="Trazado_799424" data-name="Trazado 799424" d="M74.161,33.12A2.159,2.159,0,1,0,72,30.959a2.161,2.161,0,0,0,2.16,2.161" fill="#ffc202"/>
            <path id="Trazado_799425" data-name="Trazado 799425" d="M59.761,33.12a2.159,2.159,0,1,0-2.16-2.161,2.161,2.161,0,0,0,2.16,2.161" fill="#ffc202"/>
          </g>
        </g>
        <g id="Grupo_1065002" data-name="Grupo 1065002">
          <g id="Grupo_1065001" data-name="Grupo 1065001" clip-path="url(#clip-path-24)">
            <path id="Trazado_799426" data-name="Trazado 799426" d="M88.561,90.721a2.16,2.16,0,1,0-2.16-2.16,2.16,2.16,0,0,0,2.16,2.16" fill="#ffc202"/>
            <path id="Trazado_799427" data-name="Trazado 799427" d="M74.161,90.721A2.16,2.16,0,1,0,72,88.561a2.161,2.161,0,0,0,2.16,2.16" fill="#ffc202"/>
            <path id="Trazado_799428" data-name="Trazado 799428" d="M88.561,76.32a2.16,2.16,0,1,0-2.16-2.16,2.16,2.16,0,0,0,2.16,2.16" fill="#ffc202"/>
            <path id="Trazado_799429" data-name="Trazado 799429" d="M74.161,76.32A2.16,2.16,0,1,0,72,74.16a2.161,2.161,0,0,0,2.16,2.16" fill="#ffc202"/>
            <path id="Trazado_799430" data-name="Trazado 799430" d="M66.96,83.52a2.159,2.159,0,1,0-2.16-2.16,2.161,2.161,0,0,0,2.16,2.16" fill="#ffc202"/>
            <path id="Trazado_799431" data-name="Trazado 799431" d="M81.361,83.52a2.159,2.159,0,1,0-2.16-2.16,2.161,2.161,0,0,0,2.16,2.16" fill="#ffc202"/>
            <path id="Trazado_799432" data-name="Trazado 799432" d="M66.96,69.119a2.159,2.159,0,1,0-2.16-2.158,2.16,2.16,0,0,0,2.16,2.158" fill="#ffc202"/>
            <path id="Trazado_799433" data-name="Trazado 799433" d="M81.361,69.119a2.159,2.159,0,1,0-2.16-2.158,2.161,2.161,0,0,0,2.16,2.158" fill="#ffc202"/>
            <path id="Trazado_799434" data-name="Trazado 799434" d="M59.761,90.721a2.16,2.16,0,1,0-2.16-2.16,2.16,2.16,0,0,0,2.16,2.16" fill="#ffc202"/>
            <path id="Trazado_799435" data-name="Trazado 799435" d="M59.761,76.32a2.16,2.16,0,1,0-2.16-2.16,2.16,2.16,0,0,0,2.16,2.16" fill="#ffc202"/>
            <path id="Trazado_799436" data-name="Trazado 799436" d="M88.561,61.921A2.16,2.16,0,1,0,86.4,59.76a2.161,2.161,0,0,0,2.16,2.161" fill="#ffc202"/>
            <path id="Trazado_799437" data-name="Trazado 799437" d="M74.161,61.921A2.16,2.16,0,1,0,72,59.76a2.161,2.161,0,0,0,2.16,2.161" fill="#ffc202"/>
            <path id="Trazado_799438" data-name="Trazado 799438" d="M59.761,61.921A2.16,2.16,0,1,0,57.6,59.76a2.161,2.161,0,0,0,2.16,2.161" fill="#ffc202"/>
          </g>
        </g>
        <g id="Grupo_1065004" data-name="Grupo 1065004">
          <g id="Grupo_1065003" data-name="Grupo 1065003" clip-path="url(#clip-path-25)">
            <path id="Trazado_799439" data-name="Trazado 799439" d="M88.561,119.521a2.16,2.16,0,1,0-2.16-2.16,2.16,2.16,0,0,0,2.16,2.16" fill="#ffc202"/>
            <path id="Trazado_799440" data-name="Trazado 799440" d="M74.161,119.521a2.16,2.16,0,1,0-2.16-2.16,2.16,2.16,0,0,0,2.16,2.16" fill="#ffc202"/>
            <path id="Trazado_799441" data-name="Trazado 799441" d="M88.561,105.121a2.16,2.16,0,1,0-2.16-2.16,2.16,2.16,0,0,0,2.16,2.16" fill="#ffc202"/>
            <path id="Trazado_799442" data-name="Trazado 799442" d="M74.161,105.121a2.16,2.16,0,1,0-2.16-2.16,2.161,2.161,0,0,0,2.16,2.16" fill="#ffc202"/>
            <path id="Trazado_799443" data-name="Trazado 799443" d="M66.96,112.32a2.159,2.159,0,1,0-2.16-2.16,2.161,2.161,0,0,0,2.16,2.16" fill="#ffc202"/>
            <path id="Trazado_799444" data-name="Trazado 799444" d="M81.361,112.32a2.159,2.159,0,1,0-2.16-2.16,2.161,2.161,0,0,0,2.16,2.16" fill="#ffc202"/>
            <path id="Trazado_799445" data-name="Trazado 799445" d="M66.96,97.92a2.159,2.159,0,1,0-2.16-2.158,2.16,2.16,0,0,0,2.16,2.158" fill="#ffc202"/>
            <path id="Trazado_799446" data-name="Trazado 799446" d="M81.361,97.92a2.159,2.159,0,1,0-2.16-2.158,2.161,2.161,0,0,0,2.16,2.158" fill="#ffc202"/>
            <path id="Trazado_799447" data-name="Trazado 799447" d="M59.761,119.521a2.16,2.16,0,1,0-2.16-2.16,2.16,2.16,0,0,0,2.16,2.16" fill="#ffc202"/>
            <path id="Trazado_799448" data-name="Trazado 799448" d="M59.761,105.121a2.16,2.16,0,1,0-2.16-2.16,2.16,2.16,0,0,0,2.16,2.16" fill="#ffc202"/>
            <path id="Trazado_799449" data-name="Trazado 799449" d="M88.561,90.722a2.16,2.16,0,1,0-2.16-2.161,2.161,2.161,0,0,0,2.16,2.161" fill="#ffc202"/>
            <path id="Trazado_799450" data-name="Trazado 799450" d="M74.161,90.722A2.16,2.16,0,1,0,72,88.561a2.161,2.161,0,0,0,2.16,2.161" fill="#ffc202"/>
            <path id="Trazado_799451" data-name="Trazado 799451" d="M59.761,90.722a2.16,2.16,0,1,0-2.16-2.161,2.161,2.161,0,0,0,2.16,2.161" fill="#ffc202"/>
          </g>
        </g>
        <g id="Grupo_1065006" data-name="Grupo 1065006">
          <g id="Grupo_1065005" data-name="Grupo 1065005" clip-path="url(#clip-path-26)">
            <path id="Trazado_799452" data-name="Trazado 799452" d="M88.561,148.322a2.16,2.16,0,1,0-2.16-2.16,2.16,2.16,0,0,0,2.16,2.16" fill="#ffc202"/>
            <path id="Trazado_799453" data-name="Trazado 799453" d="M74.161,148.322a2.16,2.16,0,1,0-2.16-2.16,2.161,2.161,0,0,0,2.16,2.16" fill="#ffc202"/>
            <path id="Trazado_799454" data-name="Trazado 799454" d="M88.561,133.922a2.16,2.16,0,1,0-2.16-2.16,2.16,2.16,0,0,0,2.16,2.16" fill="#ffc202"/>
            <path id="Trazado_799455" data-name="Trazado 799455" d="M74.161,133.922a2.16,2.16,0,1,0-2.16-2.16,2.161,2.161,0,0,0,2.16,2.16" fill="#ffc202"/>
            <path id="Trazado_799456" data-name="Trazado 799456" d="M66.96,141.121a2.159,2.159,0,1,0-2.16-2.16,2.161,2.161,0,0,0,2.16,2.16" fill="#ffc202"/>
            <path id="Trazado_799457" data-name="Trazado 799457" d="M81.361,141.121a2.159,2.159,0,1,0-2.16-2.16,2.161,2.161,0,0,0,2.16,2.16" fill="#ffc202"/>
            <path id="Trazado_799458" data-name="Trazado 799458" d="M66.96,126.721a2.159,2.159,0,1,0-2.16-2.158,2.16,2.16,0,0,0,2.16,2.158" fill="#ffc202"/>
            <path id="Trazado_799459" data-name="Trazado 799459" d="M81.361,126.721a2.159,2.159,0,1,0-2.16-2.158,2.161,2.161,0,0,0,2.16,2.158" fill="#ffc202"/>
            <path id="Trazado_799460" data-name="Trazado 799460" d="M59.761,148.322a2.16,2.16,0,1,0-2.16-2.16,2.16,2.16,0,0,0,2.16,2.16" fill="#ffc202"/>
            <path id="Trazado_799461" data-name="Trazado 799461" d="M59.761,133.922a2.16,2.16,0,1,0-2.16-2.16,2.16,2.16,0,0,0,2.16,2.16" fill="#ffc202"/>
            <path id="Trazado_799462" data-name="Trazado 799462" d="M88.561,119.523a2.16,2.16,0,1,0-2.16-2.161,2.161,2.161,0,0,0,2.16,2.161" fill="#ffc202"/>
            <path id="Trazado_799463" data-name="Trazado 799463" d="M74.161,119.523A2.16,2.16,0,1,0,72,117.362a2.161,2.161,0,0,0,2.16,2.161" fill="#ffc202"/>
            <path id="Trazado_799464" data-name="Trazado 799464" d="M59.761,119.523a2.16,2.16,0,1,0-2.16-2.161,2.161,2.161,0,0,0,2.16,2.161" fill="#ffc202"/>
          </g>
        </g>
        <g id="Grupo_1065008" data-name="Grupo 1065008">
          <g id="Grupo_1065007" data-name="Grupo 1065007" clip-path="url(#clip-path-27)">
            <path id="Trazado_799465" data-name="Trazado 799465" d="M88.561,162.723a2.16,2.16,0,1,0-2.16-2.16,2.16,2.16,0,0,0,2.16,2.16" fill="#ffc202"/>
            <path id="Trazado_799466" data-name="Trazado 799466" d="M74.161,162.723a2.16,2.16,0,1,0-2.16-2.16,2.161,2.161,0,0,0,2.16,2.16" fill="#ffc202"/>
            <path id="Trazado_799467" data-name="Trazado 799467" d="M66.96,155.521a2.159,2.159,0,1,0-2.16-2.158,2.16,2.16,0,0,0,2.16,2.158" fill="#ffc202"/>
            <path id="Trazado_799468" data-name="Trazado 799468" d="M81.361,155.521a2.159,2.159,0,1,0-2.16-2.158,2.161,2.161,0,0,0,2.16,2.158" fill="#ffc202"/>
            <path id="Trazado_799469" data-name="Trazado 799469" d="M59.761,162.723a2.16,2.16,0,1,0-2.16-2.16,2.16,2.16,0,0,0,2.16,2.16" fill="#ffc202"/>
            <path id="Trazado_799470" data-name="Trazado 799470" d="M88.561,148.323a2.16,2.16,0,1,0-2.16-2.161,2.161,2.161,0,0,0,2.16,2.161" fill="#ffc202"/>
            <path id="Trazado_799471" data-name="Trazado 799471" d="M74.161,148.323A2.16,2.16,0,1,0,72,146.162a2.161,2.161,0,0,0,2.16,2.161" fill="#ffc202"/>
            <path id="Trazado_799472" data-name="Trazado 799472" d="M59.761,148.323a2.16,2.16,0,1,0-2.16-2.161,2.161,2.161,0,0,0,2.16,2.161" fill="#ffc202"/>
          </g>
        </g>
        <g id="Grupo_1065010" data-name="Grupo 1065010">
          <g id="Grupo_1065009" data-name="Grupo 1065009" clip-path="url(#clip-path-28)">
            <path id="Trazado_799474" data-name="Trazado 799474" d="M59.761,33.119a2.16,2.16,0,1,0-2.16-2.16,2.16,2.16,0,0,0,2.16,2.16" fill="#ffc202"/>
            <path id="Trazado_799475" data-name="Trazado 799475" d="M45.36,33.119a2.16,2.16,0,1,0-2.16-2.16,2.161,2.161,0,0,0,2.16,2.16" fill="#ffc202"/>
            <path id="Trazado_799476" data-name="Trazado 799476" d="M38.16,25.918A2.159,2.159,0,1,0,36,23.758a2.161,2.161,0,0,0,2.16,2.16" fill="#ffc202"/>
            <path id="Trazado_799477" data-name="Trazado 799477" d="M52.561,25.918a2.159,2.159,0,1,0-2.161-2.16,2.162,2.162,0,0,0,2.161,2.16" fill="#ffc202"/>
            <path id="Trazado_799478" data-name="Trazado 799478" d="M30.96,33.119a2.16,2.16,0,1,0-2.16-2.16,2.16,2.16,0,0,0,2.16,2.16" fill="#ffc202"/>
          </g>
        </g>
        <g id="Grupo_1065012" data-name="Grupo 1065012">
          <g id="Grupo_1065011" data-name="Grupo 1065011" clip-path="url(#clip-path-29)">
            <path id="Trazado_799480" data-name="Trazado 799480" d="M59.761,61.92a2.16,2.16,0,1,0-2.16-2.16,2.16,2.16,0,0,0,2.16,2.16" fill="#ffc202"/>
            <path id="Trazado_799481" data-name="Trazado 799481" d="M45.36,61.92a2.16,2.16,0,1,0-2.16-2.16,2.161,2.161,0,0,0,2.16,2.16" fill="#ffc202"/>
            <path id="Trazado_799482" data-name="Trazado 799482" d="M59.761,47.52a2.16,2.16,0,1,0-2.16-2.16,2.16,2.16,0,0,0,2.16,2.16" fill="#ffc202"/>
            <path id="Trazado_799483" data-name="Trazado 799483" d="M45.36,47.52a2.16,2.16,0,1,0-2.16-2.16,2.161,2.161,0,0,0,2.16,2.16" fill="#ffc202"/>
            <path id="Trazado_799484" data-name="Trazado 799484" d="M38.16,54.719A2.159,2.159,0,1,0,36,52.559a2.161,2.161,0,0,0,2.16,2.16" fill="#ffc202"/>
            <path id="Trazado_799485" data-name="Trazado 799485" d="M52.561,54.719a2.159,2.159,0,1,0-2.161-2.16,2.162,2.162,0,0,0,2.161,2.16" fill="#ffc202"/>
            <path id="Trazado_799486" data-name="Trazado 799486" d="M38.16,40.318A2.159,2.159,0,1,0,36,38.16a2.16,2.16,0,0,0,2.16,2.158" fill="#ffc202"/>
            <path id="Trazado_799487" data-name="Trazado 799487" d="M52.561,40.318A2.159,2.159,0,1,0,50.4,38.16a2.161,2.161,0,0,0,2.161,2.158" fill="#ffc202"/>
            <path id="Trazado_799488" data-name="Trazado 799488" d="M30.96,61.92a2.16,2.16,0,1,0-2.16-2.16,2.16,2.16,0,0,0,2.16,2.16" fill="#ffc202"/>
            <path id="Trazado_799489" data-name="Trazado 799489" d="M30.96,47.52a2.16,2.16,0,1,0-2.16-2.16,2.16,2.16,0,0,0,2.16,2.16" fill="#ffc202"/>
            <path id="Trazado_799490" data-name="Trazado 799490" d="M59.761,33.12a2.159,2.159,0,1,0-2.16-2.161,2.161,2.161,0,0,0,2.16,2.161" fill="#ffc202"/>
            <path id="Trazado_799491" data-name="Trazado 799491" d="M45.36,33.12a2.159,2.159,0,1,0-2.16-2.161,2.161,2.161,0,0,0,2.16,2.161" fill="#ffc202"/>
            <path id="Trazado_799492" data-name="Trazado 799492" d="M30.96,33.12a2.159,2.159,0,1,0-2.16-2.161,2.161,2.161,0,0,0,2.16,2.161" fill="#ffc202"/>
          </g>
        </g>
        <g id="Grupo_1065014" data-name="Grupo 1065014">
          <g id="Grupo_1065013" data-name="Grupo 1065013" clip-path="url(#clip-path-30)">
            <path id="Trazado_799494" data-name="Trazado 799494" d="M59.761,90.721a2.16,2.16,0,1,0-2.16-2.16,2.16,2.16,0,0,0,2.16,2.16" fill="#ffc202"/>
            <path id="Trazado_799495" data-name="Trazado 799495" d="M45.36,90.721a2.16,2.16,0,1,0-2.16-2.16,2.161,2.161,0,0,0,2.16,2.16" fill="#ffc202"/>
            <path id="Trazado_799496" data-name="Trazado 799496" d="M59.761,76.32a2.16,2.16,0,1,0-2.16-2.16,2.16,2.16,0,0,0,2.16,2.16" fill="#ffc202"/>
            <path id="Trazado_799497" data-name="Trazado 799497" d="M45.36,76.32a2.16,2.16,0,1,0-2.16-2.16,2.161,2.161,0,0,0,2.16,2.16" fill="#ffc202"/>
            <path id="Trazado_799498" data-name="Trazado 799498" d="M38.16,83.52A2.159,2.159,0,1,0,36,81.36a2.161,2.161,0,0,0,2.16,2.16" fill="#ffc202"/>
            <path id="Trazado_799499" data-name="Trazado 799499" d="M52.561,83.52A2.159,2.159,0,1,0,50.4,81.36a2.162,2.162,0,0,0,2.161,2.16" fill="#ffc202"/>
            <path id="Trazado_799500" data-name="Trazado 799500" d="M38.16,69.119A2.159,2.159,0,1,0,36,66.961a2.16,2.16,0,0,0,2.16,2.158" fill="#ffc202"/>
            <path id="Trazado_799501" data-name="Trazado 799501" d="M52.561,69.119A2.159,2.159,0,1,0,50.4,66.961a2.161,2.161,0,0,0,2.161,2.158" fill="#ffc202"/>
            <path id="Trazado_799502" data-name="Trazado 799502" d="M30.96,90.721a2.16,2.16,0,1,0-2.16-2.16,2.16,2.16,0,0,0,2.16,2.16" fill="#ffc202"/>
            <path id="Trazado_799503" data-name="Trazado 799503" d="M30.96,76.32a2.16,2.16,0,1,0-2.16-2.16,2.16,2.16,0,0,0,2.16,2.16" fill="#ffc202"/>
            <path id="Trazado_799504" data-name="Trazado 799504" d="M59.761,61.921A2.16,2.16,0,1,0,57.6,59.76a2.161,2.161,0,0,0,2.16,2.161" fill="#ffc202"/>
            <path id="Trazado_799505" data-name="Trazado 799505" d="M45.36,61.921A2.16,2.16,0,1,0,43.2,59.76a2.161,2.161,0,0,0,2.16,2.161" fill="#ffc202"/>
            <path id="Trazado_799506" data-name="Trazado 799506" d="M30.96,61.921A2.16,2.16,0,1,0,28.8,59.76a2.161,2.161,0,0,0,2.16,2.161" fill="#ffc202"/>
          </g>
        </g>
        <g id="Grupo_1065016" data-name="Grupo 1065016">
          <g id="Grupo_1065015" data-name="Grupo 1065015" clip-path="url(#clip-path-31)">
            <path id="Trazado_799507" data-name="Trazado 799507" d="M59.761,119.521a2.16,2.16,0,1,0-2.16-2.16,2.159,2.159,0,0,0,2.16,2.16" fill="#ffc202"/>
            <path id="Trazado_799508" data-name="Trazado 799508" d="M45.36,119.521a2.16,2.16,0,1,0-2.16-2.16,2.16,2.16,0,0,0,2.16,2.16" fill="#ffc202"/>
            <path id="Trazado_799509" data-name="Trazado 799509" d="M59.761,105.121a2.16,2.16,0,1,0-2.16-2.16,2.16,2.16,0,0,0,2.16,2.16" fill="#ffc202"/>
            <path id="Trazado_799510" data-name="Trazado 799510" d="M45.36,105.121a2.16,2.16,0,1,0-2.16-2.16,2.161,2.161,0,0,0,2.16,2.16" fill="#ffc202"/>
            <path id="Trazado_799511" data-name="Trazado 799511" d="M38.16,112.32A2.159,2.159,0,1,0,36,110.16a2.161,2.161,0,0,0,2.16,2.16" fill="#ffc202"/>
            <path id="Trazado_799512" data-name="Trazado 799512" d="M52.561,112.32a2.159,2.159,0,1,0-2.161-2.16,2.162,2.162,0,0,0,2.161,2.16" fill="#ffc202"/>
            <path id="Trazado_799513" data-name="Trazado 799513" d="M38.16,97.92A2.159,2.159,0,1,0,36,95.762a2.16,2.16,0,0,0,2.16,2.158" fill="#ffc202"/>
            <path id="Trazado_799514" data-name="Trazado 799514" d="M52.561,97.92A2.159,2.159,0,1,0,50.4,95.762a2.161,2.161,0,0,0,2.161,2.158" fill="#ffc202"/>
            <path id="Trazado_799515" data-name="Trazado 799515" d="M30.96,119.521a2.16,2.16,0,1,0-2.16-2.16,2.16,2.16,0,0,0,2.16,2.16" fill="#ffc202"/>
            <path id="Trazado_799516" data-name="Trazado 799516" d="M30.96,105.121a2.16,2.16,0,1,0-2.16-2.16,2.16,2.16,0,0,0,2.16,2.16" fill="#ffc202"/>
            <path id="Trazado_799517" data-name="Trazado 799517" d="M59.761,90.722a2.16,2.16,0,1,0-2.16-2.161,2.161,2.161,0,0,0,2.16,2.161" fill="#ffc202"/>
            <path id="Trazado_799518" data-name="Trazado 799518" d="M45.36,90.722a2.16,2.16,0,1,0-2.16-2.161,2.161,2.161,0,0,0,2.16,2.161" fill="#ffc202"/>
            <path id="Trazado_799519" data-name="Trazado 799519" d="M30.96,90.722a2.16,2.16,0,1,0-2.16-2.161,2.161,2.161,0,0,0,2.16,2.161" fill="#ffc202"/>
          </g>
        </g>
        <g id="Grupo_1065018" data-name="Grupo 1065018">
          <g id="Grupo_1065017" data-name="Grupo 1065017" clip-path="url(#clip-path-32)">
            <path id="Trazado_799520" data-name="Trazado 799520" d="M59.761,148.322a2.16,2.16,0,1,0-2.16-2.16,2.16,2.16,0,0,0,2.16,2.16" fill="#ffc202"/>
            <path id="Trazado_799521" data-name="Trazado 799521" d="M45.36,148.322a2.16,2.16,0,1,0-2.16-2.16,2.161,2.161,0,0,0,2.16,2.16" fill="#ffc202"/>
            <path id="Trazado_799522" data-name="Trazado 799522" d="M59.761,133.922a2.16,2.16,0,1,0-2.16-2.16,2.16,2.16,0,0,0,2.16,2.16" fill="#ffc202"/>
            <path id="Trazado_799523" data-name="Trazado 799523" d="M45.36,133.922a2.16,2.16,0,1,0-2.16-2.16,2.161,2.161,0,0,0,2.16,2.16" fill="#ffc202"/>
            <path id="Trazado_799524" data-name="Trazado 799524" d="M38.16,141.121a2.159,2.159,0,1,0-2.16-2.16,2.161,2.161,0,0,0,2.16,2.16" fill="#ffc202"/>
            <path id="Trazado_799525" data-name="Trazado 799525" d="M52.561,141.121a2.159,2.159,0,1,0-2.161-2.16,2.162,2.162,0,0,0,2.161,2.16" fill="#ffc202"/>
            <path id="Trazado_799526" data-name="Trazado 799526" d="M38.16,126.721A2.159,2.159,0,1,0,36,124.563a2.16,2.16,0,0,0,2.16,2.158" fill="#ffc202"/>
            <path id="Trazado_799527" data-name="Trazado 799527" d="M52.561,126.721a2.159,2.159,0,1,0-2.161-2.158,2.161,2.161,0,0,0,2.161,2.158" fill="#ffc202"/>
            <path id="Trazado_799528" data-name="Trazado 799528" d="M30.96,148.322a2.16,2.16,0,1,0-2.16-2.16,2.16,2.16,0,0,0,2.16,2.16" fill="#ffc202"/>
            <path id="Trazado_799529" data-name="Trazado 799529" d="M30.96,133.922a2.16,2.16,0,1,0-2.16-2.16,2.16,2.16,0,0,0,2.16,2.16" fill="#ffc202"/>
            <path id="Trazado_799530" data-name="Trazado 799530" d="M59.761,119.523a2.16,2.16,0,1,0-2.16-2.161,2.161,2.161,0,0,0,2.16,2.161" fill="#ffc202"/>
            <path id="Trazado_799531" data-name="Trazado 799531" d="M45.36,119.523a2.16,2.16,0,1,0-2.16-2.161,2.161,2.161,0,0,0,2.16,2.161" fill="#ffc202"/>
            <path id="Trazado_799532" data-name="Trazado 799532" d="M30.96,119.523a2.16,2.16,0,1,0-2.16-2.161,2.161,2.161,0,0,0,2.16,2.161" fill="#ffc202"/>
          </g>
        </g>
        <g id="Grupo_1065020" data-name="Grupo 1065020">
          <g id="Grupo_1065019" data-name="Grupo 1065019" clip-path="url(#clip-path-33)">
            <path id="Trazado_799533" data-name="Trazado 799533" d="M59.761,162.723a2.16,2.16,0,1,0-2.16-2.16,2.16,2.16,0,0,0,2.16,2.16" fill="#ffc202"/>
            <path id="Trazado_799534" data-name="Trazado 799534" d="M45.36,162.723a2.16,2.16,0,1,0-2.16-2.16,2.161,2.161,0,0,0,2.16,2.16" fill="#ffc202"/>
            <path id="Trazado_799535" data-name="Trazado 799535" d="M38.16,155.521A2.159,2.159,0,1,0,36,153.363a2.16,2.16,0,0,0,2.16,2.158" fill="#ffc202"/>
            <path id="Trazado_799536" data-name="Trazado 799536" d="M52.561,155.521a2.159,2.159,0,1,0-2.161-2.158,2.161,2.161,0,0,0,2.161,2.158" fill="#ffc202"/>
            <path id="Trazado_799537" data-name="Trazado 799537" d="M30.96,162.723a2.16,2.16,0,1,0-2.16-2.16,2.16,2.16,0,0,0,2.16,2.16" fill="#ffc202"/>
            <path id="Trazado_799538" data-name="Trazado 799538" d="M59.761,148.323a2.16,2.16,0,1,0-2.16-2.161,2.161,2.161,0,0,0,2.16,2.161" fill="#ffc202"/>
            <path id="Trazado_799539" data-name="Trazado 799539" d="M45.36,148.323a2.16,2.16,0,1,0-2.16-2.161,2.161,2.161,0,0,0,2.16,2.161" fill="#ffc202"/>
            <path id="Trazado_799540" data-name="Trazado 799540" d="M30.96,148.323a2.16,2.16,0,1,0-2.16-2.161,2.161,2.161,0,0,0,2.16,2.161" fill="#ffc202"/>
          </g>
        </g>
        <g id="Grupo_1065024" data-name="Grupo 1065024">
          <g id="Grupo_1065023" data-name="Grupo 1065023" clip-path="url(#clip-path-2)">
            <g id="Grupo_1065022" data-name="Grupo 1065022">
              <g id="Grupo_1065021" data-name="Grupo 1065021" clip-path="url(#clip-path-35)">
                <path id="Trazado_799542" data-name="Trazado 799542" d="M30.96,33.119a2.16,2.16,0,1,0-2.16-2.16,2.16,2.16,0,0,0,2.16,2.16" fill="#ffc202"/>
                <path id="Trazado_799543" data-name="Trazado 799543" d="M16.56,33.119a2.16,2.16,0,1,0-2.16-2.16,2.161,2.161,0,0,0,2.16,2.16" fill="#ffc202"/>
                <path id="Trazado_799544" data-name="Trazado 799544" d="M9.36,25.918a2.159,2.159,0,1,0-2.16-2.16,2.161,2.161,0,0,0,2.16,2.16" fill="#ffc202"/>
                <path id="Trazado_799545" data-name="Trazado 799545" d="M23.76,25.918a2.159,2.159,0,1,0-2.16-2.16,2.161,2.161,0,0,0,2.16,2.16" fill="#ffc202"/>
              </g>
            </g>
          </g>
        </g>
        <g id="Grupo_1065026" data-name="Grupo 1065026">
          <g id="Grupo_1065025" data-name="Grupo 1065025" clip-path="url(#clip-path-36)">
            <path id="Trazado_799547" data-name="Trazado 799547" d="M30.96,61.92a2.16,2.16,0,1,0-2.16-2.16,2.16,2.16,0,0,0,2.16,2.16" fill="#ffc202"/>
            <path id="Trazado_799548" data-name="Trazado 799548" d="M16.56,61.92a2.16,2.16,0,1,0-2.16-2.16,2.161,2.161,0,0,0,2.16,2.16" fill="#ffc202"/>
            <path id="Trazado_799549" data-name="Trazado 799549" d="M30.96,47.52a2.16,2.16,0,1,0-2.16-2.16,2.16,2.16,0,0,0,2.16,2.16" fill="#ffc202"/>
            <path id="Trazado_799550" data-name="Trazado 799550" d="M16.56,47.52a2.16,2.16,0,1,0-2.16-2.16,2.161,2.161,0,0,0,2.16,2.16" fill="#ffc202"/>
            <path id="Trazado_799551" data-name="Trazado 799551" d="M9.36,54.719a2.159,2.159,0,1,0-2.16-2.16,2.161,2.161,0,0,0,2.16,2.16" fill="#ffc202"/>
            <path id="Trazado_799552" data-name="Trazado 799552" d="M23.76,54.719a2.159,2.159,0,1,0-2.16-2.16,2.161,2.161,0,0,0,2.16,2.16" fill="#ffc202"/>
            <path id="Trazado_799553" data-name="Trazado 799553" d="M9.36,40.318A2.159,2.159,0,1,0,7.2,38.16a2.16,2.16,0,0,0,2.16,2.158" fill="#ffc202"/>
            <path id="Trazado_799554" data-name="Trazado 799554" d="M23.76,40.318A2.159,2.159,0,1,0,21.6,38.16a2.161,2.161,0,0,0,2.16,2.158" fill="#ffc202"/>
            <path id="Trazado_799555" data-name="Trazado 799555" d="M30.96,33.12a2.159,2.159,0,1,0-2.16-2.161,2.161,2.161,0,0,0,2.16,2.161" fill="#ffc202"/>
            <path id="Trazado_799556" data-name="Trazado 799556" d="M16.56,33.12a2.159,2.159,0,1,0-2.16-2.161,2.161,2.161,0,0,0,2.16,2.161" fill="#ffc202"/>
          </g>
        </g>
        <g id="Grupo_1065028" data-name="Grupo 1065028">
          <g id="Grupo_1065027" data-name="Grupo 1065027" clip-path="url(#clip-path-37)">
            <path id="Trazado_799558" data-name="Trazado 799558" d="M30.96,90.721a2.16,2.16,0,1,0-2.16-2.16,2.16,2.16,0,0,0,2.16,2.16" fill="#ffc202"/>
            <path id="Trazado_799559" data-name="Trazado 799559" d="M16.56,90.721a2.16,2.16,0,1,0-2.16-2.16,2.161,2.161,0,0,0,2.16,2.16" fill="#ffc202"/>
            <path id="Trazado_799560" data-name="Trazado 799560" d="M30.96,76.32a2.16,2.16,0,1,0-2.16-2.16,2.16,2.16,0,0,0,2.16,2.16" fill="#ffc202"/>
            <path id="Trazado_799561" data-name="Trazado 799561" d="M16.56,76.32a2.16,2.16,0,1,0-2.16-2.16,2.161,2.161,0,0,0,2.16,2.16" fill="#ffc202"/>
            <path id="Trazado_799562" data-name="Trazado 799562" d="M9.36,83.52A2.159,2.159,0,1,0,7.2,81.36a2.161,2.161,0,0,0,2.16,2.16" fill="#ffc202"/>
            <path id="Trazado_799563" data-name="Trazado 799563" d="M23.76,83.52a2.159,2.159,0,1,0-2.16-2.16,2.161,2.161,0,0,0,2.16,2.16" fill="#ffc202"/>
            <path id="Trazado_799564" data-name="Trazado 799564" d="M9.36,69.119A2.159,2.159,0,1,0,7.2,66.961a2.16,2.16,0,0,0,2.16,2.158" fill="#ffc202"/>
            <path id="Trazado_799565" data-name="Trazado 799565" d="M23.76,69.119a2.159,2.159,0,1,0-2.16-2.158,2.161,2.161,0,0,0,2.16,2.158" fill="#ffc202"/>
            <path id="Trazado_799566" data-name="Trazado 799566" d="M30.96,61.921A2.16,2.16,0,1,0,28.8,59.76a2.161,2.161,0,0,0,2.16,2.161" fill="#ffc202"/>
            <path id="Trazado_799567" data-name="Trazado 799567" d="M16.56,61.921A2.16,2.16,0,1,0,14.4,59.76a2.161,2.161,0,0,0,2.16,2.161" fill="#ffc202"/>
          </g>
        </g>
        <g id="Grupo_1065030" data-name="Grupo 1065030">
          <g id="Grupo_1065029" data-name="Grupo 1065029" clip-path="url(#clip-path-38)">
            <path id="Trazado_799569" data-name="Trazado 799569" d="M30.96,119.521a2.16,2.16,0,1,0-2.16-2.16,2.16,2.16,0,0,0,2.16,2.16" fill="#ffc202"/>
            <path id="Trazado_799570" data-name="Trazado 799570" d="M16.56,119.521a2.16,2.16,0,1,0-2.16-2.16,2.16,2.16,0,0,0,2.16,2.16" fill="#ffc202"/>
            <path id="Trazado_799571" data-name="Trazado 799571" d="M30.96,105.121a2.16,2.16,0,1,0-2.16-2.16,2.16,2.16,0,0,0,2.16,2.16" fill="#ffc202"/>
            <path id="Trazado_799572" data-name="Trazado 799572" d="M16.56,105.121a2.16,2.16,0,1,0-2.16-2.16,2.161,2.161,0,0,0,2.16,2.16" fill="#ffc202"/>
            <path id="Trazado_799573" data-name="Trazado 799573" d="M9.36,112.32a2.159,2.159,0,1,0-2.16-2.16,2.161,2.161,0,0,0,2.16,2.16" fill="#ffc202"/>
            <path id="Trazado_799574" data-name="Trazado 799574" d="M23.76,112.32a2.159,2.159,0,1,0-2.16-2.16,2.161,2.161,0,0,0,2.16,2.16" fill="#ffc202"/>
            <path id="Trazado_799575" data-name="Trazado 799575" d="M9.36,97.92A2.159,2.159,0,1,0,7.2,95.762,2.16,2.16,0,0,0,9.36,97.92" fill="#ffc202"/>
            <path id="Trazado_799576" data-name="Trazado 799576" d="M23.76,97.92a2.159,2.159,0,1,0-2.16-2.158,2.161,2.161,0,0,0,2.16,2.158" fill="#ffc202"/>
            <path id="Trazado_799577" data-name="Trazado 799577" d="M30.96,90.722a2.16,2.16,0,1,0-2.16-2.161,2.161,2.161,0,0,0,2.16,2.161" fill="#ffc202"/>
            <path id="Trazado_799578" data-name="Trazado 799578" d="M16.56,90.722a2.16,2.16,0,1,0-2.16-2.161,2.161,2.161,0,0,0,2.16,2.161" fill="#ffc202"/>
          </g>
        </g>
        <g id="Grupo_1065032" data-name="Grupo 1065032">
          <g id="Grupo_1065031" data-name="Grupo 1065031" clip-path="url(#clip-path-39)">
            <path id="Trazado_799580" data-name="Trazado 799580" d="M30.96,148.322a2.16,2.16,0,1,0-2.16-2.16,2.16,2.16,0,0,0,2.16,2.16" fill="#ffc202"/>
            <path id="Trazado_799581" data-name="Trazado 799581" d="M16.56,148.322a2.16,2.16,0,1,0-2.16-2.16,2.161,2.161,0,0,0,2.16,2.16" fill="#ffc202"/>
            <path id="Trazado_799582" data-name="Trazado 799582" d="M30.96,133.922a2.16,2.16,0,1,0-2.16-2.16,2.16,2.16,0,0,0,2.16,2.16" fill="#ffc202"/>
            <path id="Trazado_799583" data-name="Trazado 799583" d="M16.56,133.922a2.16,2.16,0,1,0-2.16-2.16,2.161,2.161,0,0,0,2.16,2.16" fill="#ffc202"/>
            <path id="Trazado_799584" data-name="Trazado 799584" d="M9.36,141.121a2.159,2.159,0,1,0-2.16-2.16,2.161,2.161,0,0,0,2.16,2.16" fill="#ffc202"/>
            <path id="Trazado_799585" data-name="Trazado 799585" d="M23.76,141.121a2.159,2.159,0,1,0-2.16-2.16,2.161,2.161,0,0,0,2.16,2.16" fill="#ffc202"/>
            <path id="Trazado_799586" data-name="Trazado 799586" d="M9.36,126.721a2.159,2.159,0,1,0-2.16-2.158,2.16,2.16,0,0,0,2.16,2.158" fill="#ffc202"/>
            <path id="Trazado_799587" data-name="Trazado 799587" d="M23.76,126.721a2.159,2.159,0,1,0-2.16-2.158,2.161,2.161,0,0,0,2.16,2.158" fill="#ffc202"/>
            <path id="Trazado_799588" data-name="Trazado 799588" d="M30.96,119.523a2.16,2.16,0,1,0-2.16-2.161,2.161,2.161,0,0,0,2.16,2.161" fill="#ffc202"/>
            <path id="Trazado_799589" data-name="Trazado 799589" d="M16.56,119.523a2.16,2.16,0,1,0-2.16-2.161,2.161,2.161,0,0,0,2.16,2.161" fill="#ffc202"/>
          </g>
        </g>
        <g id="Grupo_1065034" data-name="Grupo 1065034">
          <g id="Grupo_1065033" data-name="Grupo 1065033" clip-path="url(#clip-path-40)">
            <path id="Trazado_799591" data-name="Trazado 799591" d="M30.96,162.723a2.16,2.16,0,1,0-2.16-2.16,2.16,2.16,0,0,0,2.16,2.16" fill="#ffc202"/>
            <path id="Trazado_799592" data-name="Trazado 799592" d="M16.56,162.723a2.16,2.16,0,1,0-2.16-2.16,2.161,2.161,0,0,0,2.16,2.16" fill="#ffc202"/>
            <path id="Trazado_799593" data-name="Trazado 799593" d="M9.36,155.521a2.159,2.159,0,1,0-2.16-2.158,2.16,2.16,0,0,0,2.16,2.158" fill="#ffc202"/>
            <path id="Trazado_799594" data-name="Trazado 799594" d="M23.76,155.521a2.159,2.159,0,1,0-2.16-2.158,2.161,2.161,0,0,0,2.16,2.158" fill="#ffc202"/>
            <path id="Trazado_799595" data-name="Trazado 799595" d="M30.96,148.323a2.16,2.16,0,1,0-2.16-2.161,2.161,2.161,0,0,0,2.16,2.161" fill="#ffc202"/>
            <path id="Trazado_799596" data-name="Trazado 799596" d="M16.56,148.323a2.16,2.16,0,1,0-2.16-2.161,2.161,2.161,0,0,0,2.16,2.161" fill="#ffc202"/>
          </g>
        </g>
      </g>
    </g>
    <g id="Grupo_1065039" data-name="Grupo 1065039" transform="translate(776.833 687.425)">
      <g id="Grupo_1065041" data-name="Grupo 1065041">
        <g id="Grupo_1065040" data-name="Grupo 1065040" transform="translate(73 -52)">
          <path id="Trazado_799606" data-name="Trazado 799606" d="M16.073,39.061a.888.888,0,0,1-.626-.258L.26,23.615a.884.884,0,0,1,1.25-1.25L16.7,37.552a.884.884,0,0,1-.626,1.51" transform="translate(168 -0.033)" fill="#fff"/>
          <path id="Trazado_799607" data-name="Trazado 799607" d="M.884,39.061a.884.884,0,0,1-.626-1.51L15.447,22.365a.884.884,0,0,1,1.25,1.25L1.51,38.8a.888.888,0,0,1-.626.258" transform="translate(168 -0.033)" fill="#fff"/>
        </g>
        <g id="Grupo_1065042" data-name="Grupo 1065042" transform="translate(-371 280)">
          <path id="Trazado_799606-2" data-name="Trazado 799606" d="M16.073,39.061a.888.888,0,0,1-.626-.258L.26,23.615a.884.884,0,0,1,1.25-1.25L16.7,37.552a.884.884,0,0,1-.626,1.51" transform="translate(168 -0.033)" fill="#fff"/>
          <path id="Trazado_799607-2" data-name="Trazado 799607" d="M.884,39.061a.884.884,0,0,1-.626-1.51L15.447,22.365a.884.884,0,0,1,1.25,1.25L1.51,38.8a.888.888,0,0,1-.626.258" transform="translate(168 -0.033)" fill="#fff"/>
        </g>
        <g id="Grupo_1065043" data-name="Grupo 1065043" transform="translate(-616.833 42.503)">
          <path id="Trazado_799606-3" data-name="Trazado 799606" d="M32.18,56.055a1.777,1.777,0,0,1-1.253-.517L.52,25.127a1.769,1.769,0,0,1,2.5-2.5L33.433,53.032a1.769,1.769,0,0,1-1.253,3.022" transform="translate(168 -0.033)" fill="#fff"/>
          <path id="Trazado_799607-3" data-name="Trazado 799607" d="M1.77,56.055A1.769,1.769,0,0,1,.517,53.032L30.928,22.625a1.769,1.769,0,0,1,2.5,2.5L3.023,55.538a1.777,1.777,0,0,1-1.253.517" transform="translate(168 -0.033)" fill="#fff"/>
        </g>
        <path id="Trazado_799608" data-name="Trazado 799608" d="M132.809,194.185a.888.888,0,0,1-.626-.258L117,178.738a.884.884,0,0,1,1.25-1.25l15.187,15.187a.884.884,0,0,1-.626,1.51" transform="translate(262.606 196.038)" fill="#fff"/>
        <path id="Trazado_799609" data-name="Trazado 799609" d="M117.622,194.185a.884.884,0,0,1-.626-1.51l15.187-15.187a.884.884,0,0,1,1.25,1.25l-15.185,15.189a.888.888,0,0,1-.626.258" transform="translate(262.606 196.038)" fill="#fff"/>
        <path id="Trazado_799610" data-name="Trazado 799610" d="M437.011,16.955a.886.886,0,0,1-.626-.256L421.2,1.51a.884.884,0,1,1,1.25-1.251l15.187,15.191a.881.881,0,0,1-.624,1.506" transform="translate(323.105 0)" fill="#fff"/>
        <path id="Trazado_799611" data-name="Trazado 799611" d="M421.824,16.955a.881.881,0,0,1-.626-1.506L436.385.258a.884.884,0,0,1,1.25,1.251L422.448,16.7a.885.885,0,0,1-.624.256" transform="translate(323.105 0)" fill="#fff"/>
      </g>
    </g>
  </g>
</svg>
