<svg xmlns="http://www.w3.org/2000/svg" xmlns:xlink="http://www.w3.org/1999/xlink" width="61.893" height="76.806" viewBox="0 0 61.893 76.806">
  <defs>
    <clipPath id="clip-path">
      <rect id="Rectángulo_374880" data-name="Rectángulo 374880" width="61.893" height="76.806" fill="none"/>
    </clipPath>
  </defs>
  <g id="Grupo_1065855" data-name="Grupo 1065855" transform="translate(-1249.213 -153.35)">
    <g id="Grupo_1065854" data-name="Grupo 1065854" transform="translate(1249.213 153.35)">
      <g id="Grupo_1065853" data-name="Grupo 1065853" transform="translate(0 0)" clip-path="url(#clip-path)">
        <path id="Trazado_800283" data-name="Trazado 800283" d="M50.426,67.334V56.218H44.441a19.836,19.836,0,0,0-1.653-4.156l4.183-4.184-7.86-7.86-4.125,4.126a19.781,19.781,0,0,0-4.215-1.765V36.563H19.655v5.816a19.775,19.775,0,0,0-4.214,1.765l-4.126-4.126-7.86,7.86,4.184,4.184a19.838,19.838,0,0,0-1.654,4.156H0V67.334H6.1A19.86,19.86,0,0,0,7.809,71.32L3.455,75.674l7.86,7.86,4.413-4.412a19.865,19.865,0,0,0,3.928,1.594v6.273H30.771V80.717A19.889,19.889,0,0,0,34.7,79.122l4.411,4.412,7.86-7.86L42.617,71.32a19.777,19.777,0,0,0,1.706-3.986Z" transform="translate(0 -10.184)" fill="#00dafd"/>
        <path id="Trazado_800284" data-name="Trazado 800284" d="M41.192,67.266A10.173,10.173,0,1,1,31.019,57.093,10.173,10.173,0,0,1,41.192,67.266" transform="translate(-5.806 -15.902)" fill="#0097f1"/>
        <path id="Trazado_800285" data-name="Trazado 800285" d="M38.813,69.078a6.3,6.3,0,1,1-6.3-6.3,6.3,6.3,0,0,1,6.3,6.3" transform="translate(-7.302 -17.486)" fill="#001d4d"/>
        <path id="Trazado_800286" data-name="Trazado 800286" d="M77.86,21.659V17.132H75.423a8.112,8.112,0,0,0-.673-1.693l1.7-1.7-3.2-3.2-1.68,1.68a8.111,8.111,0,0,0-1.716-.719V9.128H65.329V11.5a8.1,8.1,0,0,0-1.716.719l-1.68-1.68-3.2,3.2,1.7,1.7a8.034,8.034,0,0,0-.673,1.693H57.325v4.527H59.81a8.1,8.1,0,0,0,.695,1.623l-1.773,1.773,3.2,3.2,1.8-1.8a8.1,8.1,0,0,0,1.6.649v2.554h4.527V27.109a8.1,8.1,0,0,0,1.6-.649l1.8,1.8,3.2-3.2L74.68,23.282a8.1,8.1,0,0,0,.694-1.623Z" transform="translate(-15.966 -2.542)" fill="#00dafd"/>
        <path id="Trazado_800287" data-name="Trazado 800287" d="M74.635,21.294A5.014,5.014,0,1,1,69.62,16.28a5.015,5.015,0,0,1,5.014,5.014" transform="translate(-17.994 -4.534)" fill="#0097f1"/>
        <path id="Trazado_800288" data-name="Trazado 800288" d="M73.462,22.188a3.1,3.1,0,1,1-3.1-3.1,3.1,3.1,0,0,1,3.1,3.1" transform="translate(-18.731 -5.315)" fill="#001d4d"/>
        <path id="Trazado_800289" data-name="Trazado 800289" d="M47.478,8.037v-2.9H45.914a5.188,5.188,0,0,0-.431-1.086l1.092-1.093L44.522.9,43.445,1.98a5.166,5.166,0,0,0-1.1-.46V0h-2.9V1.519a5.2,5.2,0,0,0-1.1.46L37.262.9,35.209,2.955,36.3,4.048a5.19,5.19,0,0,0-.432,1.086H34.307v2.9H35.9a5.127,5.127,0,0,0,.446,1.041l-1.138,1.137,2.053,2.053,1.152-1.152a5.226,5.226,0,0,0,1.026.416v1.638h2.9V11.533a5.208,5.208,0,0,0,1.026-.416l1.153,1.152,2.053-2.053L45.438,9.078a5.209,5.209,0,0,0,.446-1.041Z" transform="translate(-9.555 0)" fill="#00dafd"/>
        <path id="Trazado_800290" data-name="Trazado 800290" d="M45.409,7.8a3.216,3.216,0,1,1-3.216-3.216A3.216,3.216,0,0,1,45.409,7.8" transform="translate(-10.856 -1.278)" fill="#0097f1"/>
        <path id="Trazado_800291" data-name="Trazado 800291" d="M44.657,8.376a1.991,1.991,0,1,1-1.991-1.991,1.992,1.992,0,0,1,1.991,1.991" transform="translate(-11.329 -1.778)" fill="#001d4d"/>
      </g>
    </g>
  </g>
</svg>
