<svg xmlns="http://www.w3.org/2000/svg" xmlns:xlink="http://www.w3.org/1999/xlink" width="110.519" height="35.672" viewBox="0 0 110.519 35.672">
  <defs>
    <clipPath id="clip-path">
      <rect id="Rectángulo_374909" data-name="Rectángulo 374909" width="110.519" height="35.672" transform="translate(0 0)" fill="none"/>
    </clipPath>
  </defs>
  <g id="Grupo_1065860" data-name="Grupo 1065860" transform="translate(0 0)">
    <path id="Trazado_800298" data-name="Trazado 800298" d="M10.954,35.672,22.189,24.437l-11.235-.274Z" transform="translate(110.519 35.672) rotate(180)" fill="#00dafd"/>
    <g id="Grupo_1065859" data-name="Grupo 1065859" transform="translate(110.519 35.672) rotate(180)">
      <g id="Grupo_1065858" data-name="Grupo 1065858" clip-path="url(#clip-path)">
        <path id="Trazado_800299" data-name="Trazado 800299" d="M97.1,26.835H13.418A13.417,13.417,0,1,1,13.418,0H97.1a13.417,13.417,0,1,1,0,26.835" fill="#00dafd"/>
        <path id="Trazado_800300" data-name="Trazado 800300" d="M97.1,0H13.418A13.457,13.457,0,0,0,0,13.418c0,.081.011.16.013.241A13.451,13.451,0,0,1,13.418.483H97.1a13.451,13.451,0,0,1,13.405,13.176c0-.081.013-.16.013-.241A13.457,13.457,0,0,0,97.1,0" fill="#6cffff"/>
        <text id="CODE" transform="translate(86.585 6.951) rotate(180)" fill="#001d4d" font-size="18.483" font-family="Montserrat-Black, Montserrat" font-weight="800"><tspan x="0" y="0" letter-spacing="0.135em">C</tspan><tspan y="0" letter-spacing="0.15em">OD</tspan><tspan y="0">E</tspan></text>
        <path id="Trazado_800301" data-name="Trazado 800301" d="M8.559,13.414l8.46-8.46,1.87,1.871L12.3,13.417l6.592,6.593-1.87,1.87-8.46-8.459,0,0Z" fill="#001d4d"/>
        <path id="Trazado_800302" data-name="Trazado 800302" d="M100.628,13.414l-8.46-8.46L90.3,6.825l6.592,6.592L90.3,20.01l1.87,1.87,8.46-8.459,0,0Z" fill="#001d4d"/>
      </g>
    </g>
  </g>
</svg>
