<svg xmlns="http://www.w3.org/2000/svg" width="85" height="85" viewBox="0 0 85 85">
  <g id="Grupo_1066255" data-name="Grupo 1066255" transform="translate(-285 -4076)">
    <circle id="Elipse_4752" data-name="Elipse 4752" cx="42.5" cy="42.5" r="42.5" transform="translate(285 4076)" fill="#ffc202"/>
    <path id="Trazado_802856" data-name="Trazado 802856" d="M15.039-12.036a12.982,12.982,0,0,1-2,6.555A12.082,12.082,0,0,1,7.9-1.074,17.492,17.492,0,0,1,.342.488q-7.007,0-11.035-4.565t-4.028-12.891v-1.758A21.517,21.517,0,0,1-12.9-27.869a13.781,13.781,0,0,1,5.237-6.055A14.611,14.611,0,0,1,.244-36.06q6.47,0,10.4,3.406a13.456,13.456,0,0,1,4.468,9.387H6.567q-.1-3.247-1.636-4.663A6.728,6.728,0,0,0,.244-29.346a5.119,5.119,0,0,0-4.687,2.393q-1.489,2.393-1.562,7.642V-16.8q0,5.688,1.428,8.13T.342-6.226A6.58,6.58,0,0,0,4.858-7.617a5.906,5.906,0,0,0,1.66-4.419Z" transform="translate(327 4137)" fill="#0097f1"/>
  </g>
</svg>
