<svg xmlns="http://www.w3.org/2000/svg" width="150" height="149.99" viewBox="0 0 150 149.99">
  <g id="informacion" transform="translate(-1 -1.018)">
    <g id="Grupo_1065245" data-name="Grupo 1065245" transform="translate(3.499 3.537)">
      <path id="Trazado_799900" data-name="Trazado 799900" d="M144.162,116.745a4.9,4.9,0,0,0-.65,2.424v34.417l-7.5-4.5-11.147-6.673a5.048,5.048,0,0,0-5.324.1c-.325.2-.65.4-1,.6a71.988,71.988,0,0,1-41.39,10.372c-.75-.025-1.475-.075-2.225-.15A72.483,72.483,0,0,1,77.3,8.721h.025a71.456,71.456,0,0,1,9.523.125,72.512,72.512,0,0,1,57.311,107.9Z" transform="translate(-8.531 -8.618)" fill="#ff8000"/>
      <path id="Trazado_799901" data-name="Trazado 799901" d="M136.664,116.993a4.9,4.9,0,0,0-.65,2.424v34.417l-17.471-10.473-1.175-.7a5.048,5.048,0,0,0-5.324.1,71.647,71.647,0,0,1-34.892,10.972c-.75-.025-1.475-.075-2.225-.15A72.483,72.483,0,0,1,77.3,8.968h.025c.675.025,1.35.075,2.025.125a72.512,72.512,0,0,1,57.311,107.9Z" transform="translate(-8.531 -8.866)" fill="#ffc202"/>
      <path id="Trazado_799902" data-name="Trazado 799902" d="M174.751,117.314A57.5,57.5,0,0,1,117.264,174.8c-1.275,0-2.525-.05-3.749-.125a57.484,57.484,0,0,1,0-114.723c1.225-.075,2.474-.125,3.749-.125A57.5,57.5,0,0,1,174.751,117.314Z" transform="translate(-44.768 -44.828)" fill="#f37c04"/>
      <ellipse id="Elipse_4732" data-name="Elipse 4732" cx="53.737" cy="57.361" rx="53.737" ry="57.361" transform="translate(15.01 15.124)" fill="#ffc202"/>
      <g id="Grupo_1065244" data-name="Grupo 1065244" transform="translate(57.5 29.996)">
        <circle id="Elipse_4733" data-name="Elipse 4733" cx="9.998" cy="9.998" r="9.998" transform="translate(4.999)" fill="#fff"/>
        <path id="Trazado_799903" data-name="Trazado 799903" d="M214.842,225.925v20a2.5,2.5,0,0,1-2.5,2.5h-5a2.5,2.5,0,0,0-2.5,2.5v10a2.5,2.5,0,0,0,2.5,2.5h29.993a2.5,2.5,0,0,0,2.5-2.5v-10a2.5,2.5,0,0,0-2.5-2.5h-5a2.5,2.5,0,0,1-2.5-2.5V215.927a2.5,2.5,0,0,0-2.5-2.5h-17.5a2.5,2.5,0,0,0-2.5,2.5v5a2.5,2.5,0,0,0,2.5,2.5h2.5A2.5,2.5,0,0,1,214.842,225.925Z" transform="translate(-204.844 -183.435)" fill="#fff"/>
      </g>
    </g>
    <g id="Grupo_1065246" data-name="Grupo 1065246" transform="translate(1 1.018)">
      <path id="Trazado_799904" data-name="Trazado 799904" d="M226.873,128.487a12.5,12.5,0,1,0-12.5-12.5A12.5,12.5,0,0,0,226.873,128.487Zm0-20a7.5,7.5,0,1,1-7.5,7.5A7.5,7.5,0,0,1,226.873,108.492Z" transform="translate(-151.878 -73.478)"/>
      <path id="Trazado_799905" data-name="Trazado 799905" d="M202.308,260.88H232.3a5,5,0,0,0,5-5v-10a5,5,0,0,0-5-5h-5V210.892a5,5,0,0,0-5-5h-17.5a5,5,0,0,0-5,5v5a5,5,0,0,0,5,5l2.5,0v20h-5a5,5,0,0,0-5,5v10A5.005,5.005,0,0,0,202.308,260.88Zm0-15h5a5,5,0,0,0,5-5v-20a5,5,0,0,0-5-5h-2.5v-5h17.5v29.993a5,5,0,0,0,5,5h5v10H202.309v-10Z" transform="translate(-139.81 -145.885)"/>
      <path id="Trazado_799906" data-name="Trazado 799906" d="M69.7,150.749q3.178.256,6.328.259a74.42,74.42,0,0,0,39.81-11.455,2.59,2.59,0,0,1,2.7-.086l18.65,11.181a2.5,2.5,0,0,0,3.785-2.143V114.087a2.431,2.431,0,0,1,.325-1.191,75,75,0,1,0-71.6,37.853ZM26.484,26.554a70.029,70.029,0,0,1,49.61-20.51q2.749,0,5.519.215a70.009,70.009,0,0,1,55.341,104.177,7.416,7.416,0,0,0-.973,3.651v30.005l-14.865-8.911a7.55,7.55,0,0,0-7.934.139,69.991,69.991,0,0,1-86.7-108.765Z" transform="translate(-1 -1.018)"/>
      <path id="Trazado_799907" data-name="Trazado 799907" d="M112.229,172.266A59.986,59.986,0,1,0,52.243,112.28,59.986,59.986,0,0,0,112.229,172.266Zm0-114.973A54.987,54.987,0,1,1,57.242,112.28,54.987,54.987,0,0,1,112.229,57.293Z" transform="translate(-37.234 -37.275)"/>
    </g>
  </g>
</svg>
