<svg xmlns="http://www.w3.org/2000/svg" width="85" height="85" viewBox="0 0 85 85">
  <g id="Grupo_1066256" data-name="Grupo 1066256" transform="translate(-636 -4076)">
    <circle id="Elipse_4753" data-name="Elipse 4753" cx="42.5" cy="42.5" r="42.5" transform="translate(636 4076)" fill="#ffc202"/>
    <path id="Trazado_802857" data-name="Trazado 802857" d="M-13.477,0V-35.547h11.45a16.843,16.843,0,0,1,8.472,2.136,15.016,15.016,0,0,1,5.872,6.03,18.207,18.207,0,0,1,2.136,8.728v1.636A18.312,18.312,0,0,1,12.39-8.264,15.081,15.081,0,0,1,6.58-2.209,16.473,16.473,0,0,1-1.782,0Zm8.569-28.931V-6.592h2.979A6.666,6.666,0,0,0,3.735-9.216q1.978-2.625,1.978-7.8v-1.538q0-5.151-1.978-7.764a6.782,6.782,0,0,0-5.762-2.612Z" transform="translate(679 4137)" fill="#0097f1"/>
  </g>
</svg>
