<svg xmlns="http://www.w3.org/2000/svg" xmlns:xlink="http://www.w3.org/1999/xlink" width="945" height="221" viewBox="0 0 945 221">
  <defs>
    <clipPath id="clip-path">
      <rect id="descargar-concepto-red-datos-informacion" width="944" height="221" rx="10" fill="#ffc202"/>
    </clipPath>
  </defs>
  <g id="Grupo_1065249" data-name="Grupo 1065249" transform="translate(-495 -6625)">
    <rect id="Rectángulo_374141" data-name="Rectángulo 374141" width="945" height="221" rx="10" transform="translate(495 6625)" fill="#00dafd"/>
    <g id="Enmascarar_grupo_1059057" data-name="Enmascarar grupo 1059057" transform="translate(495 6625)" clip-path="url(#clip-path)">
      <g id="Grupo_1065247" data-name="Grupo 1065247" transform="translate(-425.407 -135.188)">
        <path id="Trazado_799908" data-name="Trazado 799908" d="M406.056,219.7c-31.184,0-60.954-16.811-79.286-33.884-15.684-14.608-28-31.808-39.915-48.442-7.509-10.486-15.271-21.329-23.8-31.406C204.566,36.821,98.974-2.413.314,8.347L0,6.2C49.154.841,100.287,7.346,147.846,25.016s88.1,45.22,117.246,79.677c8.583,10.146,16.373,21.024,23.906,31.542,11.85,16.547,24.1,33.659,39.62,48.111,22.2,20.669,61.449,40.99,99.077,30.2,23.169-6.643,40.161-23.53,56.6-39.859,17.968-17.858,36.551-36.323,63.232-41.278,28.578-5.311,55.684,6.743,81.895,18.4,23.745,10.564,48.306,21.487,74.089,19.72,38.458-2.632,66.505-32.035,89.775-59.386L888.691,0l2.03,1.276L795.314,113.414c-23.6,27.743-52.087,57.563-91.6,60.267-26.553,1.8-51.39-9.253-75.445-19.951-27-12.01-52.509-23.353-80.209-18.21C522.2,140.324,504.708,157.7,486.192,176.1c-16.655,16.55-33.878,33.666-57.7,40.5a81.072,81.072,0,0,1-22.435,3.1" transform="translate(30.217)" fill="#fff"/>
        <path id="Trazado_799909" data-name="Trazado 799909" d="M321.563,147.009c-29.676,0-57.293-13.412-84.129-26.443-13.747-6.676-27.959-13.578-42.216-18.56C130.114,79.257,48.2,97.87,4.664,145.3L0,142.135C45.11,92.99,130,73.7,197.454,97.274c14.612,5.1,28.994,12.09,42.9,18.845,31.7,15.4,61.641,29.939,94.879,24.729,27.358-4.285,47.7-20.809,69.232-38.3,17.2-13.97,34.977-28.415,56.812-36.245,26.691-9.57,56.588-8.288,82.968-7.161,25.851,1.1,55.149,2.36,80.459-6.535,22.871-8.04,45.181-28.962,41.475-51.9l5.884-.7c4.161,25.766-19.543,48.346-45.111,57.332-26.527,9.329-56.533,8.041-83,6.908-25.756-1.1-54.941-2.355-80.39,6.775-20.829,7.471-38.209,21.589-55.016,35.244-21.217,17.236-43.157,35.057-72.25,39.613a95.043,95.043,0,0,1-14.735,1.137" transform="translate(0 117.028)" fill="#ffc202"/>
      </g>
      <g id="Grupo_1065248" data-name="Grupo 1065248" transform="translate(406.207 117.009)">
        <path id="Trazado_799910" data-name="Trazado 799910" d="M287.593,383.558l-5.93-.342c1.953-24.889,17.028-49.24,41.36-66.807s54.846-26.123,83.685-23.482c15.361,1.408,30.715,5.511,45.563,9.48,26.222,7.008,50.992,13.629,75.151,6.324,24-7.26,39.576-26.528,54.638-45.164,3.042-3.765,6.189-7.658,9.34-11.365,19.533-22.984,51.485-44.266,82.608-35.089,18.213,5.375,29.628,19.274,40.669,32.716,10.942,13.321,21.278,25.9,37.582,30.8,12.162,3.655,25.1,2.183,38.786.621,6.539-.744,13.3-1.515,19.969-1.674,14.479-.368,29.919,4.667,38.411,12.478,5.536,5.089,8.082,11.174,7.365,17.6l-5.914-.485c.554-5-1.392-9.581-5.793-13.628-7.4-6.8-21.015-11.179-33.9-10.861-6.361.153-12.966.906-19.353,1.634-13.778,1.57-28.028,3.192-41.529-.865-18.1-5.44-29.474-19.287-40.475-32.68-10.98-13.366-21.35-25.99-37.744-30.829-28.065-8.282-57.6,11.757-75.882,33.269-3.109,3.661-6.235,7.527-9.259,11.268-15.6,19.3-31.729,39.259-57.543,47.067-26.018,7.868-52.895.683-78.887-6.266-14.576-3.9-29.648-7.924-44.432-9.279-27.236-2.489-56.135,5.636-79.233,22.315s-37.407,39.731-39.251,63.24" transform="translate(-85.428 -214.927)" fill="#ffc202"/>
        <path id="Trazado_799911" data-name="Trazado 799911" d="M136.51,406.185a79.152,79.152,0,0,1-19.714-2.445l.611-1.768c33.685,8.644,68.6-7.783,90.051-26.031,15.671-13.331,28.212-29.412,40.343-44.968,6.313-8.1,12.841-16.468,19.75-24.379,25.287-28.959,52.519-45.516,80.935-49.212,37.081-4.825,71.5,12.046,104.794,28.354,33.277,16.3,67.693,33.155,104.292,27.865,23.233-3.359,43.283-15.353,62.675-26.951,17.709-10.593,36.02-21.546,56.982-26.214,35.445-7.879,77.885,3.6,110.775,29.965,29.728,23.834,48.887,55.036,67.414,85.211l-1.9.861c-18.442-30.039-37.517-61.1-66.979-84.724-25.362-20.333-67.258-38.77-108.776-29.526-20.589,4.581-38.739,15.44-56.3,25.939-19.581,11.716-39.835,23.83-63.542,27.259-37.349,5.4-72.1-11.62-105.709-28.083-32.981-16.153-67.088-32.858-103.411-28.135-27.841,3.623-54.6,19.94-79.543,48.495-6.873,7.874-13.385,16.225-19.681,24.3-12.189,15.63-24.792,31.792-40.618,45.252-17.732,15.082-44.538,28.933-72.456,28.933" transform="translate(-116.796 -186.187)" fill="#fff"/>
      </g>
    </g>
  </g>
</svg>
