<svg xmlns="http://www.w3.org/2000/svg" width="505" height="347" viewBox="0 0 505 347">
  <g id="Grupo_1066226" data-name="Grupo 1066226" transform="translate(-915 -8657)">
    <rect id="Rectángulo_375599" data-name="Rectángulo 375599" width="505" height="194" rx="10" transform="translate(915 8810)" fill="#ffc202" opacity="0.15"/>
    <g id="Developer_activity-bro" data-name="Developer activity-bro" transform="translate(950.363 8614.608)">
      <g id="freepik--background-simple--inject-2" transform="translate(30.46 42.392)">
        <path id="Trazado_802459" data-name="Trazado 802459" d="M374.16,176.873c-39.315-67.338-145.961-43.357-167.74-76.106-11.156-16.746-23.634-36.21-41.735-46.317-17.254-9.68-37.259-13.076-54.7-11.8C47.706,47.206,21.3,102.928,33.267,164.12c15.971,81.624,88.327,165.006,174.282,165.586,44.962.339,87.923-15.794,121.56-38.485l.75-.508C363.5,267.813,404.183,228.28,374.16,176.873Z" transform="translate(-30.46 -42.392)" fill="#0097f1"/>
        <path id="Trazado_802460" data-name="Trazado 802460" d="M374.16,176.873c-39.315-67.338-145.961-43.357-167.74-76.106-11.156-16.746-23.634-36.21-41.735-46.317-17.254-9.68-37.259-13.076-54.7-11.8C47.706,47.206,21.3,102.928,33.267,164.12c15.971,81.624,88.327,165.006,174.282,165.586,44.962.339,87.923-15.794,121.56-38.485l.75-.508C363.5,267.813,404.183,228.28,374.16,176.873Z" transform="translate(-30.46 -42.392)" fill="#fff" opacity="0.7"/>
      </g>
      <g id="freepik--Lines--inject-2" transform="translate(46.899 60.169)">
        <path id="Trazado_802461" data-name="Trazado 802461" d="M72.9,215.18H68.53a17.69,17.69,0,0,0-17.69,17.69V329.94a17.69,17.69,0,0,0,17.69,17.69h59.981a17.689,17.689,0,0,0,17.69-17.69h0" transform="translate(-50.84 -93.58)" fill="none" stroke="#263238" stroke-linecap="round" stroke-linejoin="round" stroke-width="1.103" stroke-dasharray="4.412"/>
        <path id="Trazado_802462" data-name="Trazado 802462" d="M163,94.437V75.263A10.833,10.833,0,0,1,173.809,64.43h78a10.833,10.833,0,0,1,10.833,10.833h0" transform="translate(-72.528 -64.43)" fill="none" stroke="#263238" stroke-linecap="round" stroke-linejoin="round" stroke-width="1.103" stroke-dasharray="4.412"/>
      </g>
      <g id="freepik--Shadow--inject-2" transform="translate(53.062 345.887)">
        <ellipse id="Elipse_4737" data-name="Elipse 4737" cx="154.487" cy="21.586" rx="154.487" ry="21.586" fill="#0097f1"/>
        <ellipse id="Elipse_4738" data-name="Elipse 4738" cx="154.487" cy="21.586" rx="154.487" ry="21.586" fill="#fff" opacity="0.5"/>
      </g>
      <g id="freepik--Window--inject-2" transform="translate(61.919 97.992)">
        <path id="Trazado_802463" data-name="Trazado 802463" d="M360.72,129.227V274.47a17.907,17.907,0,0,1-17.9,17.907H87.359a17.907,17.907,0,0,1-17.9-17.907V129.227a9.567,9.567,0,0,1,.056-1.258A17.891,17.891,0,0,1,87.359,111.32H342.821A17.891,17.891,0,0,1,360.664,128,12.03,12.03,0,0,1,360.72,129.227Z" transform="translate(-69.46 -111.32)" fill="#fff" stroke="#263238" stroke-linecap="round" stroke-linejoin="round" stroke-width="1.103"/>
        <path id="Trazado_802464" data-name="Trazado 802464" d="M80.26,140.28H355.008V274.448a16.778,16.778,0,0,1-16.778,16.778H97.046a16.778,16.778,0,0,1-16.778-16.778V140.28Z" transform="translate(-71.548 -116.92)" fill="#263238"/>
        <path id="Trazado_802465" data-name="Trazado 802465" d="M355.016,140.28V274.448a16.689,16.689,0,0,1-16.593,16.778H96.852A16.689,16.689,0,0,1,80.26,274.448V140.28Z" transform="translate(-71.548 -116.92)" fill="#fff" opacity="0.2"/>
        <path id="Trazado_802466" data-name="Trazado 802466" d="M360.677,128.009H69.53A17.891,17.891,0,0,1,87.373,111.36H342.835a17.891,17.891,0,0,1,17.843,16.649Z" transform="translate(-69.474 -111.328)" fill="#0097f1" stroke="#263238" stroke-miterlimit="10" stroke-width="1.103"/>
        <path id="Trazado_802467" data-name="Trazado 802467" d="M112.36,120.88a3.17,3.17,0,1,1-3.17-3.17A3.17,3.17,0,0,1,112.36,120.88Z" transform="translate(-76.529 -112.556)" fill="#263238"/>
        <path id="Trazado_802468" data-name="Trazado 802468" d="M128.98,120.88a3.17,3.17,0,1,1-3.17-3.17A3.17,3.17,0,0,1,128.98,120.88Z" transform="translate(-79.743 -112.556)" fill="#263238"/>
        <circle id="Elipse_4739" data-name="Elipse 4739" cx="3.17" cy="3.17" r="3.17" transform="translate(56.303 5.154)" fill="#263238"/>
        <path id="Trazado_802469" data-name="Trazado 802469" d="M355.014,140.28V274.448a16.778,16.778,0,0,1-16.778,16.778H97.052A16.777,16.777,0,0,1,80.6,277.71v-.051a16.94,16.94,0,0,1-.307-3.227V140.28Z" transform="translate(-71.554 -116.92)" fill="none" stroke="#263238" stroke-miterlimit="10" stroke-width="1.103"/>
        <path id="Trazado_802470" data-name="Trazado 802470" d="M412.922,164.016a16.892,16.892,0,0,0-3.727-1.541l-1.508-6.735h-6.4l-1.492,6.735a16.334,16.334,0,0,0-3.743,1.541l-5.784-3.7-4.525,4.509,3.638,5.784a16.413,16.413,0,0,0-1.541,3.743l-6.735,1.492v6.4l6.735,1.508a16.136,16.136,0,0,0,1.541,3.759l-3.7,5.824,4.533,4.525,5.816-3.7a16.448,16.448,0,0,0,3.735,1.549l1.5,6.727h6.38l1.5-6.727a16.762,16.762,0,0,0,3.727-1.549l.3.194v-30.5ZM404.5,187.409a8.276,8.276,0,1,1,8.276-8.268,8.276,8.276,0,0,1-8.276,8.268Z" transform="translate(-129.72 -119.909)" fill="#263238"/>
        <path id="Trazado_802471" data-name="Trazado 802471" d="M253.835,167.52v-13.5l-14.2-3.154a36.711,36.711,0,0,0-3.227-7.881l1.718-2.7H171.1l1.654,2.63a34.685,34.685,0,0,0-3.227,7.873l-14.2,3.162V167.48l14.2,3.17a35.21,35.21,0,0,0,3.227,7.937l-7.8,12.269,9.559,9.551,12.261-7.808a35.8,35.8,0,0,0,7.881,3.267l3.162,14.156h13.471l3.178-14.189a36.01,36.01,0,0,0,7.857-3.267l12.269,7.808,9.551-9.551-7.752-12.269a37,37,0,0,0,3.227-7.865Zm-49.2,10.7a17.448,17.448,0,1,1,17.448-17.448,17.448,17.448,0,0,1-17.448,17.448Z" transform="translate(-86.062 -116.92)" fill="#263238"/>
        <path id="Trazado_802472" data-name="Trazado 802472" d="M149.728,277.785l.573-10.72-11.107-3.13a30.012,30.012,0,0,0-2.275-6.372l6.711-9.422-7.2-7.978-10.051,5.646a29.452,29.452,0,0,0-6.122-2.928l-1.92-11.39L107.629,231l-3.1,11.14a28.233,28.233,0,0,0-6.372,2.259l-9.413-6.7-7.994,7.187,5.695,10.059a28.233,28.233,0,0,0-2.936,6.114l-3.227.532v14.519l2.355.661a27.911,27.911,0,0,0,2.251,6.381l-4.63,6.493.307,5.558v.048l4.783,5.3,10.067-5.687a27.959,27.959,0,0,0,6.139,2.96l1.888,10.938h0l.089.46,10.712.565.282-1.024h0l2.815-10.107a28.66,28.66,0,0,0,6.4-2.259l9.4,6.7,7.986-7.179-5.646-10.067a27.853,27.853,0,0,0,2.9-6.106Zm-28.45-16.738a187.645,187.645,0,1,0,0,.032Z" transform="translate(-71.548 -134.462)" fill="#263238"/>
        <path id="Trazado_802473" data-name="Trazado 802473" d="M260.449,260.837a21.982,21.982,0,0,0,.653-5.074l7.7-4.033-2.13-7.816-8.7.4a22,22,0,0,0-3.122-4.033l2.573-8.316-7.018-4.033-5.872,6.4a23.233,23.233,0,0,0-5.058-.645l-4.033-7.7-7.808,2.121.411,8.7a21.974,21.974,0,0,0-4.033,3.122l-8.324-2.573-4.033,7.01,6.453,5.864a20.973,20.973,0,0,0-.637,5.058l-7.719,4.033,2.13,7.808,8.712-.411a20.482,20.482,0,0,0,3.106,4.033l-2.589,8.276,7.026,4.033,5.84-6.356a21.07,21.07,0,0,0,5.074.637l4.033,7.711,7.808-2.121-.347-7.437-.056-1.274a21.3,21.3,0,0,0,4.082-3.122l8.316,2.581,3.436-6,.581-1.016ZM242,265.58a10.486,10.486,0,1,1,7.34-12.826A10.486,10.486,0,0,1,242,265.58Z" transform="translate(-96.589 -133.493)" fill="#263238"/>
        <path id="Trazado_802474" data-name="Trazado 802474" d="M364.564,273.8l1.775-10.728L355.481,258.7a28.451,28.451,0,0,0-1.557-6.7l7.816-8.7-6.324-8.873-10.777,4.574a28.539,28.539,0,0,0-5.824-3.614l-.629-11.688-10.728-1.775-4.4,10.809a29.966,29.966,0,0,0-6.671,1.573l-8.728-7.816-8.833,6.324,4.582,10.769a29.233,29.233,0,0,0-3.267,5.074c-.121.25-.25.5-.363.75l-11.68.645L286.32,260.77l1.758.71,9.1,3.67a28.378,28.378,0,0,0,1.557,6.663l-7.832,8.76,6.332,8.873,10.769-4.6a28.279,28.279,0,0,0,5.816,3.646l.6,11.632,10.72,1.775,4.388-10.728a28.338,28.338,0,0,0,6.679-1.565l8.712,7.816,8.873-6.332-4.582-10.777a28.053,28.053,0,0,0,3.67-5.848Zm-30.088-.484a10.064,10.064,0,1,0-.016,0Z" transform="translate(-111.393 -132.708)" fill="#263238"/>
      </g>
      <g id="freepik--Graphics--inject-2" transform="translate(74.769 76.479)">
        <rect id="Rectángulo_375578" data-name="Rectángulo 375578" width="105.508" height="137.943" rx="13.11" transform="translate(0 83.18)" fill="#0097f1" stroke="#263238" stroke-miterlimit="10" stroke-width="1.103"/>
        <rect id="Rectángulo_375579" data-name="Rectángulo 375579" width="105.508" height="137.943" rx="13.11" transform="translate(0 83.18)" opacity="0.2"/>
        <path id="Trazado_802475" data-name="Trazado 802475" d="M203.07,211.265V328.058a10.575,10.575,0,0,1-10.575,10.583H108.137A10.575,10.575,0,0,1,97.57,328.058V211.265a10.575,10.575,0,0,1,10.567-10.575h84.358A10.575,10.575,0,0,1,203.07,211.265Z" transform="translate(-87.745 -107.088)" fill="#fff" stroke="#263238" stroke-linecap="round" stroke-linejoin="round" stroke-width="1.103"/>
        <path id="Trazado_802476" data-name="Trazado 802476" d="M203.07,211.265v6.251H97.57v-6.251a10.575,10.575,0,0,1,10.567-10.575h84.358A10.575,10.575,0,0,1,203.07,211.265Z" transform="translate(-87.745 -107.088)" fill="#0097f1" stroke="#263238" stroke-miterlimit="10" stroke-width="1.103"/>
        <rect id="Rectángulo_375580" data-name="Rectángulo 375580" width="25.958" height="4.356" transform="translate(19.746 117.672)" fill="#0097f1"/>
        <rect id="Rectángulo_375581" data-name="Rectángulo 375581" width="25.958" height="4.356" transform="translate(19.746 156.705)" fill="#0097f1"/>
        <rect id="Rectángulo_375582" data-name="Rectángulo 375582" width="25.958" height="4.356" transform="translate(19.746 192.1)" fill="#0097f1"/>
        <rect id="Rectángulo_375583" data-name="Rectángulo 375583" width="73.718" height="3.194" transform="translate(19.746 128.457)" fill="#263238"/>
        <rect id="Rectángulo_375584" data-name="Rectángulo 375584" width="60.425" height="3.114" transform="translate(19.746 134.563)" fill="#263238"/>
        <rect id="Rectángulo_375585" data-name="Rectángulo 375585" width="68.338" height="3.114" transform="translate(19.746 140.573)" fill="#263238"/>
        <rect id="Rectángulo_375586" data-name="Rectángulo 375586" width="68.338" height="3.114" transform="translate(19.746 146.574)" fill="#263238"/>
        <rect id="Rectángulo_375587" data-name="Rectángulo 375587" width="73.718" height="3.194" transform="translate(19.746 163.852)" fill="#263238"/>
        <rect id="Rectángulo_375588" data-name="Rectángulo 375588" width="60.425" height="3.114" transform="translate(19.746 169.958)" fill="#263238"/>
        <rect id="Rectángulo_375589" data-name="Rectángulo 375589" width="68.338" height="3.114" transform="translate(19.746 175.968)" fill="#263238"/>
        <rect id="Rectángulo_375590" data-name="Rectángulo 375590" width="73.718" height="3.194" transform="translate(19.746 202.716)" fill="#263238"/>
        <rect id="Rectángulo_375591" data-name="Rectángulo 375591" width="60.425" height="3.114" transform="translate(19.746 208.83)" fill="#263238"/>
        <rect id="Rectángulo_375592" data-name="Rectángulo 375592" width="68.338" height="3.114" transform="translate(19.746 214.839)" fill="#263238"/>
        <path id="Trazado_802477" data-name="Trazado 802477" d="M343.66,97.266v47.2a12.608,12.608,0,0,1-12.616,12.608H222.326A12.608,12.608,0,0,1,209.71,144.47v-47.2A12.624,12.624,0,0,1,222.326,84.65H331.044A12.616,12.616,0,0,1,343.66,97.266Z" transform="translate(-109.429 -84.65)" fill="#fff" stroke="#222221" stroke-miterlimit="10" stroke-width="1.103"/>
        <path id="Trazado_802478" data-name="Trazado 802478" d="M343.66,97.266v1.081H209.71V97.266A12.624,12.624,0,0,1,222.326,84.65H331.044A12.616,12.616,0,0,1,343.66,97.266Z" transform="translate(-109.429 -84.65)" fill="#0097f1" stroke="#263238" stroke-miterlimit="10" stroke-width="1.103"/>
        <path id="Trazado_802479" data-name="Trazado 802479" d="M233.317,95.148a1.936,1.936,0,1,1,0-2.734A1.936,1.936,0,0,1,233.317,95.148Z" transform="translate(-113.354 -86.041)" fill="#263238"/>
        <path id="Trazado_802480" data-name="Trazado 802480" d="M244.437,95.148a1.936,1.936,0,1,1,0-2.734A1.936,1.936,0,0,1,244.437,95.148Z" transform="translate(-115.505 -86.041)" fill="#263238"/>
        <path id="Trazado_802481" data-name="Trazado 802481" d="M255.557,95.148a1.936,1.936,0,1,1,0-2.734A1.936,1.936,0,0,1,255.557,95.148Z" transform="translate(-117.655 -86.041)" fill="#263238"/>
        <rect id="Rectángulo_375593" data-name="Rectángulo 375593" width="43.784" height="37.847" transform="translate(108.823 22.376)" fill="none" stroke="#263238" stroke-linecap="round" stroke-linejoin="round" stroke-width="1.103" stroke-dasharray="4.412"/>
        <rect id="Rectángulo_375594" data-name="Rectángulo 375594" width="50.391" height="2.662" transform="translate(159.367 22.376)" fill="#263238"/>
        <rect id="Rectángulo_375595" data-name="Rectángulo 375595" width="38.654" height="2.654" transform="translate(159.367 27.885)" fill="#263238"/>
        <rect id="Rectángulo_375596" data-name="Rectángulo 375596" width="57.553" height="2.686" transform="translate(159.367 33.371)" fill="#263238"/>
        <rect id="Rectángulo_375597" data-name="Rectángulo 375597" width="49.011" height="2.686" transform="translate(159.367 38.719)" fill="#263238"/>
        <rect id="Rectángulo_375598" data-name="Rectángulo 375598" width="35.177" height="24.998" rx="6.53" transform="translate(207.983 129.772)" fill="#fff" stroke="#263238" stroke-linecap="round" stroke-linejoin="round" stroke-width="1.103"/>
        <path id="Trazado_802482" data-name="Trazado 802482" d="M355.678,254.85l-6.768,4.243,6.284,5.566" transform="translate(-136.345 -117.561)" fill="none" stroke="#263238" stroke-linecap="round" stroke-linejoin="round" stroke-width="1.103"/>
        <path id="Trazado_802483" data-name="Trazado 802483" d="M372.356,265.166l6.082-5.179-7.018-4.6" transform="translate(-140.698 -117.665)" fill="none" stroke="#263238" stroke-linecap="round" stroke-linejoin="round" stroke-width="1.103"/>
        <line id="Línea_1675" data-name="Línea 1675" y1="15.665" x2="4.993" transform="translate(222.624 135.031)" fill="none" stroke="#263238" stroke-linecap="round" stroke-linejoin="round" stroke-width="1.103"/>
      </g>
      <g id="freepik--Character--inject-2" transform="translate(190.091 175.923)">
        <path id="Trazado_802484" data-name="Trazado 802484" d="M283.614,438.289s-23.392,6.7-26.659,7.865c-2.968,1.049-11.019,3.872-17.06,2.993a12.823,12.823,0,0,1-1.726-.371c-6.122-1.823-8.873-3.525-9.68-7.373s2.242-6.687,5.179-8.5,18.859-3.711,18.859-3.711l3.848,1.129h0Z" transform="translate(-228.357 -250.716)" fill="#0097f1"/>
        <path id="Trazado_802485" data-name="Trazado 802485" d="M239.894,449.146a12.823,12.823,0,0,1-1.726-.371c-6.122-1.823-8.873-3.525-9.68-7.373s2.242-6.687,5.179-8.5,18.859-3.711,18.859-3.711l3.848,1.129c-3.485,1.613-16.455,2.493-19.287,4.122s-4.194,4.695-2.525,8.873C235.458,445.492,237.845,447.63,239.894,449.146Z" transform="translate(-228.357 -250.716)" fill="#fff"/>
        <path id="Trazado_802486" data-name="Trazado 802486" d="M280.123,439.471s-17.569,4.549-24.538,7.461-20.255,4.186-25.006-1.815-.548-11.18,4.186-12.333,14.31-2.968,19.537-2.234" transform="translate(-228.383 -250.946)" fill="none" stroke="#263238" stroke-linecap="round" stroke-linejoin="round" stroke-width="1.103"/>
        <path id="Trazado_802487" data-name="Trazado 802487" d="M241.514,449.1s-8.938-4.9-5.969-11.777c2.194-5.066,14.116-3.969,20.021-6.735" transform="translate(-229.63 -250.987)" fill="none" stroke="#263238" stroke-linecap="round" stroke-linejoin="round" stroke-width="1.103"/>
        <path id="Trazado_802488" data-name="Trazado 802488" d="M373.5,450.135a7.4,7.4,0,0,1-3.509,6.114,13.752,13.752,0,0,1-7.187,1.484c-8.2-.1-23.626-5.969-23.626-5.969l-14.439-7.986,7.51-11.882,2.057-3.227,5.308,1.194s4.4,2.492,8.817,4.477,15.157,2.42,18.94,5.461S373.913,446.15,373.5,450.135Z" transform="translate(-246.994 -250.616)" fill="#0097f1"/>
        <path id="Trazado_802489" data-name="Trazado 802489" d="M375.3,450.135a7.4,7.4,0,0,1-3.509,6.114,10.8,10.8,0,0,0-.4-7.211c-1.613-3.622-6.864-6.816-13.769-7.348s-12.188-3.759-14.955-5.2c-2.162-1.121-6.719-3.573-8.615-4.59l2.057-3.227,5.308,1.194s4.4,2.492,8.816,4.477,15.157,2.42,18.94,5.461S375.713,446.15,375.3,450.135Z" transform="translate(-248.794 -250.616)" fill="#fff"/>
        <path id="Trazado_802490" data-name="Trazado 802490" d="M328.35,447.163a91.038,91.038,0,0,0,33.8,11.543c2.63.315,5.687.363,7.445-1.613a5.5,5.5,0,0,0,1.21-4.122c-.315-3.711-3.436-6.647-6.856-8.123s-7.187-1.815-10.825-2.63a43.06,43.06,0,0,1-10.406-3.807c-2.613-1.363-5.138-3.017-8.018-3.63s-6.308.129-7.849,2.646" transform="translate(-247.402 -251.758)" fill="none" stroke="#263238" stroke-linecap="round" stroke-linejoin="round" stroke-width="1.103"/>
        <path id="Trazado_802491" data-name="Trazado 802491" d="M370.4,457.228a9.615,9.615,0,0,0,5.283-6.824c.524-3.493-1.468-7.01-4.267-9.155s-6.308-3.162-9.768-3.88-7-1.2-10.317-2.517c-5.058-1.984-10.051-5.888-15.326-4.493" transform="translate(-249.171 -250.885)" fill="none" stroke="#263238" stroke-linecap="round" stroke-linejoin="round" stroke-width="1.103"/>
        <path id="Trazado_802492" data-name="Trazado 802492" d="M327.947,290.528l-24.433-9.292-.307-.121s.089-.645.161-1.613c.153-1.952.234-5.13-.686-6.2-1.363-1.613-5.219-.258-8.986-1.984s-10.728,1.363-10.728,1.363-5.033-.928-7.26,2.7c-1.129,2.928-.742,7.26-.742,7.26l-.46.161c-2.912,1.089-18.754,7.05-22.1,9.446-3.7,2.622-7.8,29.539-9.115,37.444s-3.654,15.028-2.468,17.746,18.206,15.826,28,19.206,44.518,2.42,44.518,2.42.565-.153,1.573-.476c5.872-1.888,26.708-9.68,37.767-27.974C352.694,340.645,341.982,305.532,327.947,290.528ZM261.932,335.8c-1.8,1.275-.807,6.211-.807,6.211l-3.057-2.694,7.679-18.883,3.275,14.519S263.73,334.539,261.932,335.8ZM323.365,347.8c-.847.436,2.42-8.639.871-10.7s-6.219-1.863-6.219-1.863l.4-2.476,2.767-14.2.92-1.089s9.5,16.286,11.2,22.029C333.3,339.524,322.946,347.8,323.365,347.8Z" transform="translate(-230.704 -220.087)" fill="#0097f1"/>
        <path id="Trazado_802493" data-name="Trazado 802493" d="M288.406,222.25,275.79,235.64s-1.734,1.541-1.049,5.421,2.3,7.26,3.517,7.486a17.237,17.237,0,0,0,2.92.258s2.7,5.856,4.622,8.155c0,0,.661,9.042.307,11.551,0,0,4.533,3.961,8.8,4.461s10.857-6.034,10.857-6.034l1.613-8s3.872-5.872,4.13-7.437,2.033-1.162,2.9-1.936a14.828,14.828,0,0,0,3.227-7.478c.347-3.259.355-7-3.428-5.9-3.283-.879-1.226-7.816-1.226-7.816l-5.767-5.082Z" transform="translate(-237.295 -210.701)" fill="#fff"/>
        <path id="Trazado_802494" data-name="Trazado 802494" d="M311.671,281.25a14.267,14.267,0,0,1-.653,1.46c-2.081,3.92-11.148,11.4-11.148,11.4l-2.743-8.429-1.5,8.429c-3.025-1.323-12.253-9.317-12.253-9.317s-.315-.75-.694-1.92l.46-.161s-.387-4.364.742-7.26c2.21-3.63,7.26-2.7,7.26-2.7s6.961-3.089,10.728-1.363,7.623.387,8.986,1.984.524,7.792.524,7.792Z" transform="translate(-238.861 -220.101)" fill="#fff" opacity="0.5"/>
        <path id="Trazado_802495" data-name="Trazado 802495" d="M342.03,292.617,317.6,283.324l-.307-.121s.089-.645.161-1.613l-.508,3.17-3.614,4.9a100.022,100.022,0,0,1,11.293,4.969,9.9,9.9,0,0,1,5.163,9.873l-4.5,38.517-1.847,21.868,5.574,5.784c5.872-1.888,26.708-9.68,37.767-27.974C366.778,342.733,356.066,307.62,342.03,292.617Zm-4.582,57.271c-.847.436,2.42-8.639.871-10.7s-6.219-1.863-6.219-1.863l.4-2.476,2.767-14.2.92-1.089s9.5,16.286,11.2,22.029C347.386,341.612,337.029,349.888,337.448,349.888Z" transform="translate(-244.788 -222.176)" opacity="0.2"/>
        <path id="Trazado_802496" data-name="Trazado 802496" d="M271.911,343.013l-3.8-12.7s-6.816-23.239-11.487-28.966l1.226,16.342s-4.033,19.521-7.719,25.32-4.509,7.26,0,7.26,15.487,8.744,15.487,8.744l-.847-7.26Zm-9.575,4.912-3.057-2.694,7.679-18.883,3.275,14.519s-5.259-.4-7.058.871S262.336,347.925,262.336,347.925Z" transform="translate(-231.972 -225.997)" opacity="0.2"/>
        <path id="Trazado_802497" data-name="Trazado 802497" d="M288.49,265.28s.694,6.848,0,9.978" transform="translate(-239.985 -219.022)" fill="none" stroke="#263238" stroke-linecap="round" stroke-linejoin="round" stroke-width="1.103"/>
        <path id="Trazado_802498" data-name="Trazado 802498" d="M314.11,274.942a29.468,29.468,0,0,1,.758-6.542" transform="translate(-244.938 -219.625)" fill="none" stroke="#263238" stroke-linecap="round" stroke-linejoin="round" stroke-width="1.103"/>
        <path id="Trazado_802499" data-name="Trazado 802499" d="M309.723,228.58s4.146,5.2,3.928,9.139-.524,8.6-.419,13.164-7.332,14.132-11.156,14.979-7.115,1.065-9.559-1.379a91.234,91.234,0,0,1-8.066-10.2c-3.178-4.356-2.42-13.914-2.42-13.914" transform="translate(-238.72 -211.925)" fill="none" stroke="#263238" stroke-linecap="round" stroke-linejoin="round" stroke-width="1.103"/>
        <path id="Trazado_802500" data-name="Trazado 802500" d="M303.905,247.71a21.635,21.635,0,0,0-.323,4.332,4.88,4.88,0,0,0,1.065,3.388c.46.468,1.121.847,1.21,1.492a1.613,1.613,0,0,1-.855,1.412,12.552,12.552,0,0,0-1.492.887" transform="translate(-242.889 -215.625)" fill="none" stroke="#263238" stroke-linecap="round" stroke-linejoin="round" stroke-width="1.103"/>
        <path id="Trazado_802501" data-name="Trazado 802501" d="M295.87,262.6s.476,3.089,4.614,3.735" transform="translate(-241.412 -218.504)" fill="none" stroke="#263238" stroke-linecap="round" stroke-linejoin="round" stroke-width="1.103"/>
        <path id="Trazado_802502" data-name="Trazado 802502" d="M295.986,250.243c0,.9-.387,1.613-.863,1.613s-.863-.718-.863-1.613.387-1.613.863-1.613S295.986,249.356,295.986,250.243Z" transform="translate(-241.1 -215.802)" fill="#263238"/>
        <path id="Trazado_802503" data-name="Trazado 802503" d="M311.3,250.723c0,.9-.387,1.613-.863,1.613s-.863-.726-.863-1.613.387-1.613.863-1.613S311.3,249.828,311.3,250.723Z" transform="translate(-244.061 -215.895)" fill="#263238"/>
        <path id="Trazado_802504" data-name="Trazado 802504" d="M308.62,245.862s4.033-4.033,7.413.468" transform="translate(-243.877 -214.946)" fill="none" stroke="#263238" stroke-linecap="round" stroke-linejoin="round" stroke-width="2.206"/>
        <path id="Trazado_802505" data-name="Trazado 802505" d="M296.516,246.056s-2.549-2.855-6.566,0" transform="translate(-240.267 -215.059)" fill="none" stroke="#263238" stroke-linecap="round" stroke-linejoin="round" stroke-width="2.206"/>
        <path id="Trazado_802506" data-name="Trazado 802506" d="M288.8,269.1s2.46,6.776,7.953,8.7,12.785-8.066,12.785-8.066l-.379-1.3s-4.783,6.211-10.1,5.154-10.567-8.268-10.567-8.268Z" transform="translate(-239.985 -219.03)" fill="#263238"/>
        <path id="Trazado_802507" data-name="Trazado 802507" d="M281.217,251.622s-3.275,1.153-4.146-1.4-3.856-9.268-1.242-11.511,4.711,2.96,4.711,2.96" transform="translate(-237.333 -213.777)" fill="none" stroke="#263238" stroke-linecap="round" stroke-linejoin="round" stroke-width="1.103"/>
        <path id="Trazado_802508" data-name="Trazado 802508" d="M320.72,253.212s3.041.613,3.912-1.936,3.856-9.268,1.242-11.511-4.711,2.96-4.711,2.96" transform="translate(-246.217 -213.98)" fill="none" stroke="#263238" stroke-linecap="round" stroke-linejoin="round" stroke-width="1.103"/>
        <path id="Trazado_802509" data-name="Trazado 802509" d="M279.691,242.374a4.533,4.533,0,0,0,2.872-1.694,7.051,7.051,0,0,0,.807-2.573,30.323,30.323,0,0,0,.452-5.195,7.106,7.106,0,0,1,.186-2.025,5.324,5.324,0,0,1,1.1-1.8c1.137-1.339,2.517-2.468,3.606-3.856a6.453,6.453,0,0,0,1.613-4.84,22.142,22.142,0,0,0,18.125,4.687c5.767-1.129,11.293-6.187,10.623-12.543a5.138,5.138,0,0,0-4.033-4.42c-2.847-.71-5.4.807-7.986,1.783-4.7,1.775-9.309-1.274-14.06-1.783-4.033-.444-9.059.065-11.172,4.106,0,0-7.26.855-10.486,6.856s2.88,14.3,2.88,14.3,2.42-2.968,5.59,3.033Z" transform="translate(-236.485 -207.933)" fill="#263238"/>
        <path id="Trazado_802510" data-name="Trazado 802510" d="M316.915,226.07s-1.888,9.841,3.041,14.608c0,0,1.081-2.96,2.17-3.686a11.4,11.4,0,0,0-.863-10.922C317.617,220.343,316.915,226.07,316.915,226.07Z" transform="translate(-245.412 -210.948)" fill="#263238"/>
        <path id="Trazado_802511" data-name="Trazado 802511" d="M319,212.8a9.268,9.268,0,0,1-5.646,5.864c-6.84,2.791-13.479-.3-20.335-.9-5.59-.5-11.761,4.549-12.156,10.293" transform="translate(-238.509 -208.874)" fill="none" stroke="#fff" stroke-linecap="round" stroke-linejoin="round" stroke-width="1.103" opacity="0.2"/>
        <path id="Trazado_802512" data-name="Trazado 802512" d="M275.63,227.3a11.946,11.946,0,0,1,7.26-10.551" transform="translate(-237.498 -209.638)" fill="none" stroke="#fff" stroke-linecap="round" stroke-linejoin="round" stroke-width="1.103" opacity="0.2"/>
        <path id="Trazado_802513" data-name="Trazado 802513" d="M286.53,276.317a31.225,31.225,0,0,0,10.656,7.26s8.187-2.38,12.35-8.066" transform="translate(-239.606 -221)" fill="none" stroke="#263238" stroke-linecap="round" stroke-linejoin="round" stroke-width="1.103"/>
        <circle id="Elipse_4740" data-name="Elipse 4740" cx="7.244" cy="7.244" r="7.244" transform="matrix(0.909, -0.417, 0.417, 0.909, 42.669, 30.861)" fill="none" stroke="#263238" stroke-linecap="round" stroke-linejoin="round" stroke-width="1.103"/>
        <circle id="Elipse_4741" data-name="Elipse 4741" cx="7.244" cy="7.244" r="7.244" transform="translate(60.374 28.151) rotate(-7)" fill="none" stroke="#263238" stroke-linecap="round" stroke-linejoin="round" stroke-width="1.103"/>
        <path id="Trazado_802514" data-name="Trazado 802514" d="M287.475,273.16a5.646,5.646,0,0,0-3.493,2.7c-1.283,2.259-.508,9.365-.508,9.365s6.622,6.55,12.261,9.317L297.4,285.2l2.581,9.349s8.728-6.171,11.148-11.39c0,0,.807-6.09,0-8.066a2.8,2.8,0,0,0-2.605-1.912" transform="translate(-238.97 -220.546)" fill="none" stroke="#263238" stroke-linecap="round" stroke-linejoin="round" stroke-width="1.103"/>
        <path id="Trazado_802515" data-name="Trazado 802515" d="M274.184,344.847s-2.589-17.343-6.034-24.417" transform="translate(-236.051 -229.686)" fill="none" stroke="#263238" stroke-linecap="round" stroke-linejoin="round" stroke-width="1.103"/>
        <path id="Trazado_802516" data-name="Trazado 802516" d="M258.92,301.35a70.175,70.175,0,0,1,5.356,8.962" transform="translate(-234.267 -225.997)" fill="none" stroke="#263238" stroke-linecap="round" stroke-linejoin="round" stroke-width="1.103"/>
        <path id="Trazado_802517" data-name="Trazado 802517" d="M343.23,315.372a50.09,50.09,0,0,1,2.847-8.462" transform="translate(-250.569 -227.072)" fill="none" stroke="#263238" stroke-linecap="round" stroke-linejoin="round" stroke-width="1.103"/>
        <path id="Trazado_802518" data-name="Trazado 802518" d="M336.6,345.5s1.863-11.89,4.09-21.682" transform="translate(-249.287 -230.341)" fill="none" stroke="#263238" stroke-linecap="round" stroke-linejoin="round" stroke-width="1.103"/>
        <path id="Trazado_802519" data-name="Trazado 802519" d="M340.52,328.817a13.713,13.713,0,0,1,7.211-4.937" transform="translate(-250.045 -230.353)" fill="none" stroke="#263238" stroke-linecap="round" stroke-linejoin="round" stroke-width="1.103"/>
        <path id="Trazado_802520" data-name="Trazado 802520" d="M318.25,283.59s15.028,6.009,24.731,9.421c0,0,11.938,11.22,24.74,50.108,0,0-11.728,19.73-34.04,26.054" transform="translate(-245.739 -222.562)" fill="none" stroke="#263238" stroke-linecap="round" stroke-linejoin="round" stroke-width="1.103"/>
        <path id="Trazado_802521" data-name="Trazado 802521" d="M342.18,364.4l10.785-8.978s5.7-4.332,11.632-1.371" transform="translate(-250.366 -235.987)" fill="none" stroke="#263238" stroke-linecap="round" stroke-linejoin="round" stroke-width="1.103"/>
        <path id="Trazado_802522" data-name="Trazado 802522" d="M341.67,328.67s8.913,13.172,11.2,22.045" transform="translate(-250.268 -231.279)" fill="none" stroke="#263238" stroke-linecap="round" stroke-linejoin="round" stroke-width="1.103"/>
        <path id="Trazado_802523" data-name="Trazado 802523" d="M263,358.974l-3.154-2.993a14.884,14.884,0,0,0-9.986,2.734" transform="translate(-232.515 -236.545)" fill="none" stroke="#263238" stroke-linecap="round" stroke-linejoin="round" stroke-width="1.103"/>
        <path id="Trazado_802524" data-name="Trazado 802524" d="M262.24,351.323s3.92-12.906,7.784-19.513" transform="translate(-234.909 -231.886)" fill="none" stroke="#263238" stroke-linecap="round" stroke-linejoin="round" stroke-width="1.103"/>
        <path id="Trazado_802525" data-name="Trazado 802525" d="M275.065,285.55s-21.626,8.115-23.747,10.486-10.18,47.745-10.4,52.94c-.186,4.646,16.657,15.076,25.006,19.472" transform="translate(-230.786 -222.941)" fill="none" stroke="#263238" stroke-linecap="round" stroke-linejoin="round" stroke-width="1.103"/>
        <path id="Trazado_802526" data-name="Trazado 802526" d="M302.615,304.218a1.42,1.42,0,1,1-.416-1.012A1.428,1.428,0,0,1,302.615,304.218Z" transform="translate(-242.164 -226.275)" fill="#263238"/>
        <path id="Trazado_802527" data-name="Trazado 802527" d="M322.248,398.227h-49.2a1.154,1.154,0,0,1-1.153-1.154h0a1.153,1.153,0,0,1,1.153-1.154h49.2a1.153,1.153,0,0,1,1.153,1.153h0A1.154,1.154,0,0,1,322.248,398.227Z" transform="translate(-236.775 -244.283)" fill="#263238"/>
        <path id="Trazado_802528" data-name="Trazado 802528" d="M322.691,385.622l6.59-30.975a3.291,3.291,0,0,0-3.227-3.977H268.541a3.291,3.291,0,0,0-3.227,3.936l5.913,29.942a3.291,3.291,0,0,0,3.154,2.654l45,1.032A3.307,3.307,0,0,0,322.691,385.622Z" transform="translate(-235.491 -235.533)" fill="#fff" stroke="#263238" stroke-linecap="round" stroke-linejoin="round" stroke-width="1.103"/>
        <path id="Trazado_802529" data-name="Trazado 802529" d="M308.24,371.728a4.59,4.59,0,1,1-1.341-3.251,4.59,4.59,0,0,1,1.341,3.251Z" transform="translate(-242.028 -238.716)" fill="#263238"/>
        <line id="Línea_1676" data-name="Línea 1676" x2="6.832" transform="translate(75.237 118.097)" fill="none" stroke="#263238" stroke-linecap="round" stroke-linejoin="round" stroke-width="1.103"/>
        <line id="Línea_1677" data-name="Línea 1677" x2="25.933" transform="translate(42.609 118.097)" fill="none" stroke="#263238" stroke-linecap="round" stroke-linejoin="round" stroke-width="1.103"/>
        <path id="Trazado_802530" data-name="Trazado 802530" d="M316.545,424.8,311.3,438.564s-13.374-3.372-30.5-6.881c-17.915-3.67-36.621-8.421-46.325-25.449a9.645,9.645,0,0,1-1.412-6.848c1.4-5.88,9.05-7.477,14.092-8.066a91.873,91.873,0,0,1,9.542-.532c1.613,0,6.977-.879,8.276.081a38.028,38.028,0,0,0,6.219,3.686c2.864,1.218,44.663-1.089,44.663-1.089a15,15,0,0,0,1.315-5.025c6.574-3.339,21.779-6.163,28.232-4.912,10.107,1.96,16,7.857,14.882,14.035S336.84,420.31,316.545,424.8Z" transform="translate(-229.232 -241.828)" fill="#263238"/>
        <path id="Trazado_802531" data-name="Trazado 802531" d="M323.153,428.995s-12.721-3.372-23.11-10.389-18.5-15.165-32.983-13.479" transform="translate(-235.841 -246.02)" fill="none" stroke="#fff" stroke-linecap="round" stroke-linejoin="round" stroke-width="1.103"/>
        <path id="Trazado_802532" data-name="Trazado 802532" d="M305,414.584c6.566-1.888,11.382-6.138,16.649-10.212a112.624,112.624,0,0,1,17.819-11.712" transform="translate(-243.177 -243.653)" fill="none" stroke="#fff" stroke-linecap="round" stroke-linejoin="round" stroke-width="1.103"/>
        <line id="Línea_1678" data-name="Línea 1678" x2="1.928" transform="translate(59.508 35.586)" fill="none" stroke="#263238" stroke-linecap="round" stroke-linejoin="round" stroke-width="1.103"/>
      </g>
    </g>
  </g>
</svg>
